<svg width="43" height="38" viewBox="0 0 43 38" fill="none" xmlns="http://www.w3.org/2000/svg">
<path d="M1.91664 7.49922C1.11699 6.77734 0.611084 5.72734 0.611084 4.5625C0.611084 2.38867 2.36542 0.625 4.52775 0.625C5.68643 0.625 6.73088 1.13359 7.44893 1.9375H35.551C36.2691 1.13359 37.3135 0.625 38.4722 0.625C40.6345 0.625 42.3889 2.38867 42.3889 4.5625C42.3889 5.72734 41.883 6.77734 41.0833 7.49922V30.5008C41.883 31.2227 42.3889 32.2727 42.3889 33.4375C42.3889 35.6113 40.6345 37.375 38.4722 37.375C37.3135 37.375 36.2691 36.8664 35.551 36.0625H7.44893C6.73088 36.8664 5.68643 37.375 4.52775 37.375C2.36542 37.375 0.611084 35.6113 0.611084 33.4375C0.611084 32.2727 1.11699 31.2227 1.91664 30.5008V7.49922ZM8.2241 5.875C7.83244 6.99063 6.95119 7.87656 5.83331 8.27852V29.7215C6.94303 30.1152 7.82428 31.0012 8.2241 32.125H34.7758C35.1675 31.0094 36.0488 30.1234 37.1666 29.7215V8.27852C36.0569 7.88477 35.1757 6.99883 34.7758 5.875H8.2241ZM8.44442 11.125C8.44442 9.67305 9.61126 8.5 11.0555 8.5H21.5C22.9442 8.5 24.1111 9.67305 24.1111 11.125V19C24.1111 20.452 22.9442 21.625 21.5 21.625H11.0555C9.61126 21.625 8.44442 20.452 8.44442 19V11.125ZM18.8889 24.25H21.5C24.3804 24.25 26.7222 21.8957 26.7222 19V16.375H31.9444C33.3887 16.375 34.5555 17.548 34.5555 19V26.875C34.5555 28.327 33.3887 29.5 31.9444 29.5H21.5C20.0557 29.5 18.8889 28.327 18.8889 26.875V24.25Z" fill="#2B2B2B"/>
</svg>
