<svg width="689" height="557" viewBox="0 0 689 557" fill="none" xmlns="http://www.w3.org/2000/svg">
<path d="M347.167 84.7818H295.251C291.67 84.7818 288.778 81.8915 288.778 78.3131V6.46874C288.778 2.89029 291.67 0 295.251 0H328.163L353.64 26.2879V78.3131C353.64 81.8915 350.748 84.7818 347.167 84.7818Z" fill="#476443"/>
<g opacity="0.2">
<path d="M344.689 84.7823H297.592C292.634 84.7823 288.641 80.7909 288.641 75.8361V60.6965C288.641 59.7331 289.467 59.0449 290.293 59.0449H351.85C352.814 59.0449 353.502 59.8707 353.502 60.6965V75.8361C353.64 80.7909 349.646 84.7823 344.689 84.7823Z" fill="black"/>
</g>
<g opacity="0.2">
<path d="M328.164 0V20.232C328.164 23.5352 330.918 26.2879 334.223 26.2879H353.64L328.164 0Z" fill="white"/>
</g>
<g opacity="0.2">
<path d="M328.439 22.0215C328.439 22.0215 328.163 26.9763 333.809 28.4902C334.085 28.4902 334.223 28.6279 334.498 28.6279C336.977 29.0408 353.777 32.0687 353.777 31.6558C353.777 31.2429 353.777 26.2881 353.777 26.2881H334.36C334.223 26.2881 329.265 26.1505 328.439 22.0215Z" fill="black"/>
</g>
<path d="M307.231 70.3306C307.231 67.3027 309.573 65.1006 312.74 65.1006C314.53 65.1006 315.907 65.7887 316.871 66.8898L315.356 68.2661C314.668 67.4403 313.842 67.0274 312.878 67.0274C310.95 67.0274 309.71 68.4038 309.71 70.193C309.71 71.9822 311.087 73.3586 312.878 73.3586C313.842 73.3586 314.805 72.9457 315.356 72.1199L316.871 73.4962C315.907 74.5973 314.53 75.2854 312.74 75.2854C309.573 75.5607 307.231 73.3586 307.231 70.3306Z" fill="#FAFAFA"/>
<path d="M317.56 74.3219L318.386 72.5327C319.212 73.2209 320.451 73.6338 321.691 73.6338C323.068 73.6338 323.619 73.2209 323.619 72.5327C323.619 70.6058 317.697 71.9822 317.697 68.1284C317.697 66.4769 319.074 64.9629 321.966 64.9629C323.206 64.9629 324.583 65.2382 325.409 65.7887L324.72 67.5779C323.757 67.0274 322.793 66.7521 321.966 66.7521C320.589 66.7521 320.038 67.3026 320.038 67.8532C320.038 69.78 325.96 68.4037 325.96 72.1198C325.96 73.7714 324.583 75.2854 321.691 75.2854C320.176 75.5606 318.524 75.0101 317.56 74.3219Z" fill="#FAFAFA"/>
<path d="M326.786 74.3219L327.612 72.5327C328.439 73.2209 329.678 73.6338 330.917 73.6338C332.295 73.6338 332.845 73.2209 332.845 72.5327C332.845 70.6058 326.924 71.9822 326.924 68.1284C326.924 66.4769 328.301 64.9629 331.193 64.9629C332.432 64.9629 333.809 65.2382 334.636 65.7887L333.947 67.5779C332.983 67.0274 332.019 66.7521 331.193 66.7521C329.816 66.7521 329.265 67.3026 329.265 67.8532C329.265 69.78 335.186 68.4037 335.186 72.1198C335.186 73.7714 333.809 75.2854 330.917 75.2854C329.265 75.5606 327.75 75.0101 326.786 74.3219Z" fill="#FAFAFA"/>
<path d="M310.537 37.7119C311.638 37.9872 312.051 38.6754 312.051 40.3269V44.043C312.051 45.1441 312.602 45.6946 313.704 45.6946H314.117V48.5849H312.74C309.848 48.5849 308.333 47.071 308.333 44.4559V40.3269C308.333 39.6388 307.92 39.2259 307.369 39.2259H306.543V36.3356H307.369C308.058 36.3356 308.333 35.9227 308.333 35.2345V31.1055C308.333 28.4905 309.848 26.9766 312.74 26.9766H314.117V29.8669H313.704C312.602 29.8669 312.051 30.555 312.051 31.5184V35.2345C312.189 36.6109 311.638 37.299 310.537 37.7119Z" fill="#FAFAFA"/>
<path d="M335.6 36.1978V39.0881H334.774C334.085 39.0881 333.81 39.501 333.81 40.1892V44.3182C333.81 46.9332 332.295 48.4472 329.403 48.4472H328.026V45.5569H328.439C329.541 45.5569 330.092 44.8687 330.092 43.9053V40.1892C330.092 38.5376 330.642 37.8494 331.606 37.5742C330.505 37.2989 330.092 36.6107 330.092 34.9591V31.2431C330.092 30.142 329.541 29.5915 328.439 29.5915H328.026V26.7012H329.403C332.295 26.7012 333.81 28.2151 333.81 30.8302V34.9591C333.81 35.6473 334.223 36.0602 334.774 36.0602H335.6V36.1978Z" fill="#FAFAFA"/>
<path d="M419.878 136.944H367.135C363.555 136.944 360.525 134.054 360.525 130.338V57.3925C360.525 53.8141 363.417 50.7861 367.135 50.7861H400.599L426.489 77.4869V130.338C426.489 134.054 423.459 136.944 419.878 136.944Z" fill="#476443"/>
<g opacity="0.2">
<path d="M416.987 136.944H370.027C364.794 136.944 360.525 132.678 360.525 127.448V110.794H426.489V127.448C426.489 132.678 422.22 136.944 416.987 136.944Z" fill="black"/>
</g>
<g opacity="0.2">
<path d="M400.599 50.9238V71.4311C400.599 74.8719 403.353 77.6246 406.796 77.6246H426.489L400.599 50.9238Z" fill="white"/>
</g>
<g opacity="0.2">
<path d="M400.874 73.2207C400.874 73.2207 400.599 78.1755 406.245 79.8271C406.52 79.8271 406.658 79.9647 406.933 79.9647C409.55 80.3776 426.488 83.4055 426.488 82.9926C426.488 82.5797 426.488 77.4873 426.488 77.4873H406.796C406.658 77.4873 401.838 77.3497 400.874 73.2207Z" fill="black"/>
</g>
<path d="M387.655 89.323L379.805 92.2133L387.655 95.1035V98.1315L376.362 93.8648V90.8369L387.655 86.5703V89.323Z" fill="#FAFAFA"/>
<path d="M396.055 80.5146H399.36L391.511 102.949H388.206L396.055 80.5146Z" fill="#FAFAFA"/>
<path d="M411.203 90.6992V93.7272L399.911 97.9938V94.9659L407.76 92.2132L399.911 89.3229V86.4326L411.203 90.6992Z" fill="#FAFAFA"/>
<path d="M384.9 120.566V129.375H382.835V125.796H378.841V129.375H376.775V120.566H378.841V124.007H382.835V120.566H384.9Z" fill="#FAFAFA"/>
<path d="M388.894 122.218H386.002V120.566H393.714V122.218H390.822V129.375H388.756V122.218H388.894Z" fill="#FAFAFA"/>
<path d="M402.94 129.375V124.007L400.324 128.411H399.36L396.743 124.145V129.375H394.815V120.566H396.468L399.773 126.072L403.078 120.566H404.731V129.375H402.94Z" fill="#FAFAFA"/>
<path d="M406.934 120.566H409V127.723H413.406V129.375H406.934V120.566Z" fill="#FAFAFA"/>
<path d="M554.559 207.688H323.619V354.405H554.559V207.688Z" fill="white"/>
<path d="M365.208 207.688H323.619V354.405H365.208V207.688Z" fill="#EBEBEB"/>
<path d="M341.797 223.516C342.073 223.379 342.21 223.241 342.486 223.241L342.623 222.553H343.725L343.863 223.241C344.138 223.241 344.276 223.379 344.551 223.516L345.102 223.103L345.928 223.929L345.515 224.48C345.653 224.755 345.791 224.893 345.791 225.168L346.479 225.305V226.406L345.791 226.544C345.791 226.819 345.653 226.957 345.515 227.232L345.928 227.783L345.102 228.609L344.551 228.196C344.276 228.333 344.138 228.471 343.863 228.471L343.725 229.159H342.623L342.486 228.471C342.21 228.471 342.073 228.333 341.797 228.196L341.246 228.609L340.42 227.783L340.833 227.232C340.695 226.957 340.558 226.819 340.558 226.544L339.869 226.406V225.305L340.558 225.168C340.558 224.893 340.695 224.755 340.833 224.48L340.42 223.929L341.246 223.103L341.797 223.516ZM342.486 225.168C342.073 225.718 342.073 226.406 342.486 226.957C343.036 227.37 343.725 227.37 344.276 226.957C344.689 226.406 344.689 225.718 344.276 225.168C343.725 224.617 342.899 224.617 342.486 225.168Z" fill="#E0E0E0"/>
<path d="M351.437 255.997H333.259C332.295 255.997 331.331 255.171 331.331 254.07C331.331 253.107 332.157 252.144 333.259 252.144H351.437C352.401 252.144 353.365 252.969 353.365 254.07C353.365 255.171 352.538 255.997 351.437 255.997Z" fill="#E0E0E0"/>
<path d="M351.437 246.5H333.259C332.295 246.5 331.331 245.674 331.331 244.573C331.331 243.61 332.157 242.646 333.259 242.646H351.437C352.401 242.646 353.365 243.472 353.365 244.573C353.365 245.674 352.538 246.5 351.437 246.5Z" fill="#E0E0E0"/>
<path d="M351.437 237.83H333.259C332.295 237.83 331.331 237.004 331.331 235.903C331.331 234.94 332.157 233.977 333.259 233.977H351.437C352.401 233.977 353.365 234.802 353.365 235.903C353.365 237.004 352.538 237.83 351.437 237.83Z" fill="#E0E0E0"/>
<path d="M400.186 229.434H382.972C382.008 229.434 381.044 228.608 381.044 227.507C381.044 226.544 381.871 225.58 382.972 225.58H400.186C401.15 225.58 402.114 226.406 402.114 227.507C401.976 228.608 401.15 229.434 400.186 229.434Z" fill="#263238"/>
<path d="M400.186 239.206H382.972C382.008 239.206 381.044 238.38 381.044 237.279C381.044 236.316 381.871 235.353 382.972 235.353H400.186C401.15 235.353 402.114 236.178 402.114 237.279C401.976 238.38 401.15 239.206 400.186 239.206Z" fill="#E0E0E0"/>
<path d="M400.186 249.253H382.972C382.008 249.253 381.044 248.427 381.044 247.326C381.044 246.363 381.871 245.399 382.972 245.399H400.186C401.15 245.399 402.114 246.225 402.114 247.326C401.976 248.427 401.15 249.253 400.186 249.253Z" fill="#FFBE5F"/>
<path d="M392.888 268.659H382.972C382.008 268.659 381.044 267.834 381.044 266.733C381.044 265.769 381.871 264.806 382.972 264.806H392.75C393.714 264.806 394.678 265.631 394.678 266.733C394.678 267.834 393.851 268.659 392.888 268.659Z" fill="#263238"/>
<path d="M392.888 278.844H382.972C382.008 278.844 381.044 278.018 381.044 276.917C381.044 275.954 381.871 274.99 382.972 274.99H392.75C393.714 274.99 394.678 275.816 394.678 276.917C394.678 278.018 393.851 278.844 392.888 278.844Z" fill="#263238"/>
<path d="M422.082 278.844H404.042C403.078 278.844 402.114 278.018 402.114 276.917C402.114 275.954 402.94 274.99 404.042 274.99H422.082C423.046 274.99 424.01 275.816 424.01 276.917C424.01 278.018 423.183 278.844 422.082 278.844Z" fill="#E0E0E0"/>
<path d="M411.891 287.79H393.851C392.887 287.79 391.923 286.964 391.923 285.863C391.923 284.9 392.75 283.937 393.851 283.937H411.891C412.855 283.937 413.819 284.762 413.819 285.863C413.682 286.964 412.855 287.79 411.891 287.79Z" fill="#FFBE5F"/>
<path d="M415.747 297.975H403.629C402.94 297.975 402.251 297.424 402.251 296.599V295.635C402.251 294.947 402.802 294.259 403.629 294.259H415.885C416.573 294.259 417.262 294.809 417.262 295.635V296.599C417.124 297.424 416.573 297.975 415.747 297.975Z" fill="#FFBE5F"/>
<path d="M415.334 318.07H404.179C403.215 318.07 402.251 317.244 402.251 316.143C402.251 315.179 403.078 314.216 404.179 314.216H415.334C416.298 314.216 417.262 315.042 417.262 316.143C417.124 317.244 416.298 318.07 415.334 318.07Z" fill="#FFBE5F"/>
<path d="M415.334 339.265H404.179C403.215 339.265 402.251 338.439 402.251 337.338C402.251 336.375 403.078 335.411 404.179 335.411H415.334C416.298 335.411 417.262 336.237 417.262 337.338C417.124 338.439 416.298 339.265 415.334 339.265Z" fill="#FFBE5F"/>
<path d="M442.876 339.265H423.184C422.22 339.265 421.256 338.439 421.256 337.338C421.256 336.375 422.082 335.411 423.184 335.411H442.876C443.84 335.411 444.804 336.237 444.804 337.338C444.667 338.439 443.84 339.265 442.876 339.265Z" fill="#455A64"/>
<path d="M456.647 339.265H453.755C452.791 339.265 451.827 338.439 451.827 337.338C451.827 336.375 452.653 335.411 453.755 335.411H456.647C457.611 335.411 458.575 336.237 458.575 337.338C458.437 338.439 457.611 339.265 456.647 339.265Z" fill="#E0E0E0"/>
<path d="M441.637 318.07H424.974C424.01 318.07 423.046 317.244 423.046 316.143C423.046 315.179 423.872 314.216 424.974 314.216H441.637C442.601 314.216 443.565 315.042 443.565 316.143C443.565 317.244 442.738 318.07 441.637 318.07Z" fill="#E0E0E0"/>
<path d="M478.13 327.429H425.112C424.148 327.429 423.184 326.603 423.184 325.502C423.184 324.539 424.01 323.575 425.112 323.575H478.13C479.094 323.575 480.058 324.401 480.058 325.502C480.058 326.603 479.094 327.429 478.13 327.429Z" fill="#E0E0E0"/>
<path d="M484.327 318.07H450.45C449.486 318.07 448.522 317.244 448.522 316.143C448.522 315.179 449.349 314.216 450.45 314.216H484.327C485.291 314.216 486.255 315.042 486.255 316.143C486.117 317.244 485.291 318.07 484.327 318.07Z" fill="#455A64"/>
<path d="M438.47 297.975H423.459C422.771 297.975 422.082 297.424 422.082 296.599V295.635C422.082 294.947 422.633 294.259 423.459 294.259H438.47C439.158 294.259 439.847 294.809 439.847 295.635V296.599C439.847 297.424 439.158 297.975 438.47 297.975Z" fill="#455A64"/>
<path d="M450.588 297.975H446.044C445.355 297.975 444.667 297.424 444.667 296.599V295.635C444.667 294.947 445.217 294.259 446.044 294.259H450.588C451.277 294.259 451.965 294.809 451.965 295.635V296.599C451.965 297.424 451.277 297.975 450.588 297.975Z" fill="#E0E0E0"/>
<path d="M477.304 297.975H458.713C458.024 297.975 457.336 297.424 457.336 296.599V295.635C457.336 294.947 457.887 294.259 458.713 294.259H477.304C477.992 294.259 478.681 294.809 478.681 295.635V296.599C478.681 297.424 478.13 297.975 477.304 297.975Z" fill="#E0E0E0"/>
<path d="M424.148 287.79H420.154C419.19 287.79 418.226 286.964 418.226 285.863C418.226 284.9 419.052 283.937 420.154 283.937H424.148C425.112 283.937 426.076 284.762 426.076 285.863C425.938 286.964 425.112 287.79 424.148 287.79Z" fill="#263238"/>
<path d="M458.162 287.79H432.548C431.584 287.79 430.62 286.964 430.62 285.863C430.62 284.9 431.446 283.937 432.548 283.937H458.162C459.126 283.937 460.09 284.762 460.09 285.863C460.09 286.964 459.264 287.79 458.162 287.79Z" fill="#E0E0E0"/>
<path d="M427.728 229.434H410.514C409.55 229.434 408.586 228.608 408.586 227.507C408.586 226.544 409.413 225.58 410.514 225.58H427.728C428.692 225.58 429.656 226.406 429.656 227.507C429.518 228.608 428.692 229.434 427.728 229.434Z" fill="#455A64"/>
<path d="M449.762 239.206H410.514C409.55 239.206 408.586 238.38 408.586 237.279C408.586 236.316 409.413 235.353 410.514 235.353H449.762C450.726 235.353 451.69 236.178 451.69 237.279C451.69 238.38 450.863 239.206 449.762 239.206Z" fill="#263238"/>
<path d="M492.039 249.253H410.514C409.55 249.253 408.586 248.427 408.586 247.326C408.586 246.363 409.413 245.399 410.514 245.399H492.176C493.14 245.399 494.104 246.225 494.104 247.326C493.967 248.427 493.14 249.253 492.039 249.253Z" fill="#E0E0E0"/>
<path d="M448.935 256.273H410.514C409.55 256.273 408.586 255.447 408.586 254.346C408.586 253.382 409.413 252.419 410.514 252.419H448.935C449.899 252.419 450.863 253.245 450.863 254.346C450.863 255.447 450.037 256.273 448.935 256.273Z" fill="#E0E0E0"/>
<path d="M441.086 268.659H402.665C401.701 268.659 400.737 267.834 400.737 266.733C400.737 265.769 401.563 264.806 402.665 264.806H441.086C442.05 264.806 443.014 265.631 443.014 266.733C443.014 267.834 442.188 268.659 441.086 268.659Z" fill="#455A64"/>
<path d="M462.568 268.659H449.624C448.66 268.659 447.696 267.834 447.696 266.733C447.696 265.769 448.522 264.806 449.624 264.806H462.568C463.532 264.806 464.496 265.631 464.496 266.733C464.496 267.834 463.67 268.659 462.568 268.659Z" fill="#FFBE5F"/>
<path d="M495.619 268.659H471.244C470.28 268.659 469.316 267.834 469.316 266.733C469.316 265.769 470.143 264.806 471.244 264.806H495.619C496.583 264.806 497.547 265.631 497.547 266.733C497.409 267.834 496.583 268.659 495.619 268.659Z" fill="#263238"/>
<path d="M528.808 268.659H504.433C503.469 268.659 502.505 267.834 502.505 266.733C502.505 265.769 503.331 264.806 504.433 264.806H528.808C529.772 264.806 530.735 265.631 530.735 266.733C530.598 267.834 529.772 268.659 528.808 268.659Z" fill="#E0E0E0"/>
<path d="M343.587 266.044H333.259C332.295 266.044 331.331 265.218 331.331 264.117C331.331 263.154 332.157 262.19 333.259 262.19H343.587C344.551 262.19 345.515 263.016 345.515 264.117C345.515 265.218 344.689 266.044 343.587 266.044Z" fill="#E0E0E0"/>
<path d="M340.558 296.186H333.397C332.433 296.186 331.469 295.36 331.469 294.259C331.469 293.295 332.295 292.332 333.397 292.332H340.558C341.522 292.332 342.486 293.158 342.486 294.259C342.348 295.36 341.522 296.186 340.558 296.186Z" fill="#E0E0E0"/>
<path d="M353.365 276.092H333.397C332.433 276.092 331.469 275.266 331.469 274.165C331.469 273.202 332.295 272.238 333.397 272.238H353.365C354.329 272.238 355.293 273.064 355.293 274.165C355.155 275.266 354.329 276.092 353.365 276.092Z" fill="#E0E0E0"/>
<path d="M349.784 286.139H333.259C332.295 286.139 331.331 285.313 331.331 284.212C331.331 283.249 332.157 282.285 333.259 282.285H349.784C350.748 282.285 351.712 283.111 351.712 284.212C351.712 285.313 350.886 286.139 349.784 286.139Z" fill="#E0E0E0"/>
<path d="M374.572 227.507C374.572 228.608 373.745 229.434 372.644 229.434C371.542 229.434 370.716 228.608 370.716 227.507C370.716 226.406 371.542 225.58 372.644 225.58C373.745 225.718 374.572 226.544 374.572 227.507Z" fill="#455A64"/>
<path d="M372.644 219.525C373.709 219.525 374.572 218.662 374.572 217.598C374.572 216.534 373.709 215.671 372.644 215.671C371.579 215.671 370.716 216.534 370.716 217.598C370.716 218.662 371.579 219.525 372.644 219.525Z" fill="#455A64"/>
<path d="M372.644 239.206C373.709 239.206 374.572 238.344 374.572 237.279C374.572 236.215 373.709 235.353 372.644 235.353C371.579 235.353 370.716 236.215 370.716 237.279C370.716 238.344 371.579 239.206 372.644 239.206Z" fill="#455A64"/>
<path d="M372.644 249.253C373.709 249.253 374.572 248.39 374.572 247.326C374.572 246.262 373.709 245.399 372.644 245.399C371.579 245.399 370.716 246.262 370.716 247.326C370.716 248.39 371.579 249.253 372.644 249.253Z" fill="#455A64"/>
<path d="M372.644 259.438C373.709 259.438 374.572 258.575 374.572 257.511C374.572 256.447 373.709 255.584 372.644 255.584C371.579 255.584 370.716 256.447 370.716 257.511C370.716 258.575 371.579 259.438 372.644 259.438Z" fill="#455A64"/>
<path d="M374.572 267.559C374.572 268.66 373.745 269.486 372.644 269.486C371.542 269.486 370.716 268.66 370.716 267.559C370.716 266.458 371.542 265.632 372.644 265.632C373.745 265.632 374.572 266.595 374.572 267.559Z" fill="#455A64"/>
<path d="M372.644 279.67C373.709 279.67 374.572 278.807 374.572 277.743C374.572 276.679 373.709 275.816 372.644 275.816C371.579 275.816 370.716 276.679 370.716 277.743C370.716 278.807 371.579 279.67 372.644 279.67Z" fill="#455A64"/>
<path d="M372.644 289.717C373.709 289.717 374.572 288.854 374.572 287.79C374.572 286.726 373.709 285.863 372.644 285.863C371.579 285.863 370.716 286.726 370.716 287.79C370.716 288.854 371.579 289.717 372.644 289.717Z" fill="#455A64"/>
<path d="M374.572 297.838C374.572 298.939 373.745 299.765 372.644 299.765C371.542 299.765 370.716 298.939 370.716 297.838C370.716 296.737 371.542 295.911 372.644 295.911C373.745 296.049 374.572 296.875 374.572 297.838Z" fill="#455A64"/>
<path d="M374.572 308.023C374.572 309.124 373.745 309.949 372.644 309.949C371.542 309.949 370.716 309.124 370.716 308.023C370.716 306.922 371.542 306.096 372.644 306.096C373.745 306.096 374.572 306.922 374.572 308.023Z" fill="#455A64"/>
<path d="M372.644 319.996C373.709 319.996 374.572 319.134 374.572 318.069C374.572 317.005 373.709 316.143 372.644 316.143C371.579 316.143 370.716 317.005 370.716 318.069C370.716 319.134 371.579 319.996 372.644 319.996Z" fill="#455A64"/>
<path d="M374.572 328.255C374.572 329.356 373.745 330.182 372.644 330.182C371.542 330.182 370.716 329.356 370.716 328.255C370.716 327.154 371.542 326.328 372.644 326.328C373.745 326.328 374.572 327.154 374.572 328.255Z" fill="#455A64"/>
<path d="M372.644 340.229C373.709 340.229 374.572 339.366 374.572 338.302C374.572 337.238 373.709 336.375 372.644 336.375C371.579 336.375 370.716 337.238 370.716 338.302C370.716 339.366 371.579 340.229 372.644 340.229Z" fill="#455A64"/>
<path d="M549.188 187.731H331.056C326.924 187.731 323.619 191.035 323.619 195.164V207.688H554.559V192.961C554.421 190.071 552.08 187.731 549.188 187.731Z" fill="#E0E0E0"/>
<path d="M335.462 201.081C336.983 201.081 338.216 199.849 338.216 198.329C338.216 196.809 336.983 195.576 335.462 195.576C333.941 195.576 332.708 196.809 332.708 198.329C332.708 199.849 333.941 201.081 335.462 201.081Z" fill="white"/>
<path d="M346.755 198.329C346.755 199.843 345.515 201.081 344 201.081C342.485 201.081 341.246 199.843 341.246 198.329C341.246 196.815 342.485 195.576 344 195.576C345.515 195.576 346.755 196.815 346.755 198.329Z" fill="white"/>
<path d="M355.155 198.329C355.155 199.843 353.915 201.081 352.401 201.081C350.886 201.081 349.646 199.843 349.646 198.329C349.646 196.815 350.886 195.576 352.401 195.576C353.915 195.576 355.155 196.815 355.155 198.329Z" fill="white"/>
<path d="M372.644 352.203L392.199 373.261L409.964 352.203H372.644Z" fill="white"/>
<path d="M548.224 354.542C548.224 354.542 548.913 354.542 550.29 354.13C550.979 353.854 551.667 353.579 552.493 352.891C553.182 352.203 553.871 351.239 554.284 350.001C554.421 349.312 554.559 348.624 554.559 347.936C554.559 347.248 554.559 346.422 554.559 345.596C554.559 343.945 554.559 342.155 554.559 340.229C554.559 336.375 554.559 331.833 554.559 326.741C554.559 306.509 554.559 277.193 554.421 240.858C554.421 231.774 554.421 222.277 554.421 212.368C554.421 207.413 554.421 202.321 554.421 197.228C554.421 195.989 554.421 194.613 554.421 193.374C554.284 192.136 553.733 190.897 552.907 190.071C552.08 189.108 550.979 188.42 549.739 188.282C548.5 188.007 547.123 188.144 545.883 188.144C524.538 188.144 501.816 188.144 477.855 188.144C453.893 188.144 428.692 188.144 402.665 188.144C389.582 188.144 376.362 188.144 362.867 188.144C356.119 188.144 349.371 188.144 342.485 188.144C339.043 188.144 335.6 188.144 332.157 188.144C331.331 188.144 330.367 188.144 329.678 188.144C328.852 188.282 328.026 188.42 327.337 188.833C325.96 189.658 324.859 191.035 324.445 192.686C324.17 193.787 324.308 195.026 324.308 196.265V199.843C324.308 202.183 324.308 204.66 324.308 207C324.308 211.817 324.308 216.497 324.308 221.314C324.308 230.811 324.308 240.17 324.308 249.391C324.308 267.971 324.308 286.139 324.308 303.756C324.308 312.564 324.308 321.235 324.308 329.769C324.308 334.035 324.308 338.302 324.308 342.431C324.308 344.495 324.308 346.697 324.308 348.624C324.445 350.551 325.547 352.478 327.337 353.441C328.164 353.992 329.128 354.13 330.092 354.267C331.056 354.267 332.157 354.267 333.121 354.267C335.187 354.267 337.252 354.267 339.18 354.267C343.174 354.267 347.168 354.267 351.161 354.267C359.148 354.267 366.86 354.267 374.434 354.267H374.572L374.71 354.405C380.907 360.874 386.828 367.067 392.612 373.261H392.199C397.707 366.792 402.94 360.461 408.036 354.542L408.173 354.405H408.311C451.552 354.405 486.668 354.542 510.905 354.542C523.023 354.542 532.526 354.542 538.86 354.542C542.028 354.542 544.506 354.542 546.159 354.542C547.398 354.542 548.224 354.542 548.224 354.542C548.224 354.542 547.398 354.542 545.746 354.542C544.093 354.542 541.614 354.542 538.447 354.542C531.975 354.542 522.61 354.542 510.492 354.542C486.117 354.542 451.139 354.542 407.898 354.68L408.036 354.542C402.94 360.598 397.707 366.792 392.199 373.398L392.061 373.673L391.786 373.398C386.002 367.342 380.08 361.011 373.883 354.68L374.021 354.818C366.447 354.818 358.735 354.818 350.748 354.818C346.754 354.818 342.761 354.818 338.767 354.818C336.702 354.818 334.774 354.818 332.708 354.818C331.744 354.818 330.642 354.818 329.678 354.818C328.577 354.818 327.475 354.542 326.649 353.992C324.721 352.891 323.481 350.826 323.344 348.624C323.344 346.56 323.344 344.495 323.344 342.293C323.344 338.164 323.344 333.898 323.344 329.631C323.344 321.098 323.344 312.427 323.344 303.618C323.344 286.001 323.344 267.834 323.344 249.253C323.344 240.032 323.344 230.535 323.344 221.176C323.344 216.497 323.344 211.68 323.344 206.862C323.344 204.523 323.344 202.045 323.344 199.706V196.127V194.338C323.344 193.787 323.344 193.099 323.481 192.411C323.895 190.622 325.134 189.108 326.649 188.144C327.475 187.731 328.301 187.456 329.265 187.319C330.229 187.319 331.056 187.319 331.882 187.319C335.325 187.319 338.767 187.319 342.21 187.319C349.096 187.319 355.843 187.319 362.591 187.319C376.087 187.319 389.307 187.319 402.389 187.319C428.417 187.319 453.618 187.319 477.579 187.319C501.541 187.319 524.401 187.319 545.608 187.319C546.985 187.319 548.224 187.181 549.602 187.456C550.979 187.731 552.218 188.42 553.044 189.521C554.008 190.484 554.559 191.86 554.697 193.237C554.835 194.613 554.697 195.852 554.697 197.091C554.697 202.183 554.697 207.275 554.697 212.23C554.697 222.14 554.697 231.636 554.697 240.72C554.697 276.918 554.559 306.233 554.559 326.603C554.559 331.695 554.559 336.237 554.559 340.091C554.559 342.018 554.559 343.807 554.559 345.459C554.559 346.284 554.559 347.11 554.559 347.798C554.559 348.487 554.559 349.312 554.284 349.863C553.871 351.102 553.182 352.203 552.493 352.891C551.667 353.579 550.979 353.992 550.29 354.13C549.602 354.405 549.051 354.405 548.775 354.405C548.362 354.542 548.224 354.542 548.224 354.542Z" fill="#263238"/>
<path d="M682.63 173.968H509.666C507.187 173.968 505.259 172.041 505.259 169.564V81.7539C505.259 79.2765 507.187 77.3496 509.666 77.3496H683.456C685.935 77.3496 687.862 79.2765 687.862 81.7539V168.738C687.862 171.628 685.521 173.968 682.63 173.968Z" fill="white"/>
<path d="M687.862 98.1322H505.396V82.1668C505.396 79.5517 507.6 77.3496 510.216 77.3496H683.18C685.797 77.3496 688 79.5517 688 82.1668V98.1322H687.862Z" fill="#E0E0E0"/>
<path d="M682.767 173.968C682.767 173.968 683.318 173.968 684.144 173.692C684.971 173.417 686.348 172.729 687.174 171.077C687.587 170.252 687.862 169.288 687.725 168.187C687.725 167.086 687.725 165.847 687.725 164.471C687.725 161.856 687.725 158.69 687.725 155.25C687.725 141.349 687.725 121.254 687.587 96.3428C687.587 93.1773 687.587 90.0117 687.587 86.8461C687.587 85.1946 687.587 83.543 687.587 81.8914C687.725 80.2398 686.899 78.7258 685.384 78.0376C684.695 77.6248 683.869 77.6248 683.043 77.6248C682.216 77.6248 681.39 77.6248 680.426 77.6248C678.636 77.6248 676.983 77.6248 675.193 77.6248C671.613 77.6248 668.032 77.6248 664.452 77.6248C649.854 77.6248 634.156 77.6248 617.768 77.6248C584.855 77.6248 548.638 77.6248 510.63 77.6248C510.079 77.6248 509.528 77.6248 508.977 77.7624C508.426 77.9 507.875 78.1753 507.462 78.4505C506.636 79.1387 505.947 80.1021 505.81 81.2032C505.672 81.7537 505.81 82.3043 505.81 82.8548V84.644V88.2225C505.81 92.902 505.81 97.5815 505.81 102.123C505.81 111.345 505.81 120.429 505.81 129.375C505.81 138.321 505.81 147.129 505.81 155.663C505.81 159.929 505.81 164.196 505.81 168.462C505.672 170.527 506.911 172.454 508.839 173.142C509.803 173.555 510.767 173.555 511.731 173.555C512.833 173.555 513.797 173.555 514.761 173.555C547.674 173.555 577.281 173.555 602.207 173.692C627.132 173.692 647.238 173.83 661.147 173.83C668.032 173.83 673.541 173.83 677.121 173.83C678.911 173.83 680.288 173.83 681.252 173.83C682.216 173.83 682.767 173.968 682.767 173.968C682.767 173.968 682.354 173.968 681.39 173.968C680.426 173.968 679.049 173.968 677.259 173.968C673.541 173.968 668.17 173.968 661.284 173.968C647.376 173.968 627.27 173.968 602.344 174.105C577.419 174.105 547.811 174.105 514.899 174.243C513.935 174.243 512.833 174.243 511.869 174.243C510.905 174.243 509.666 174.243 508.702 173.83C506.636 173.004 505.259 170.802 505.259 168.6C505.259 164.333 505.259 160.067 505.259 155.8C505.259 147.129 505.259 138.458 505.259 129.512C505.259 120.566 505.259 111.482 505.259 102.261C505.259 97.5815 505.259 93.0396 505.259 88.3601V84.7817V82.9924C505.259 82.4419 505.259 81.7537 505.259 81.2032C505.396 79.9645 506.223 78.7258 507.187 78.0376C507.738 77.6248 508.288 77.3495 508.977 77.2118C509.666 77.0742 510.216 77.0742 510.767 77.0742C548.775 77.0742 584.993 77.0742 617.906 77.0742C634.293 77.0742 649.992 77.0742 664.589 77.0742C668.308 77.0742 671.888 77.0742 675.331 77.0742C677.121 77.0742 678.911 77.0742 680.564 77.0742C681.39 77.0742 682.354 77.0742 683.18 77.0742C684.007 77.0742 684.971 77.0742 685.797 77.4871C687.449 78.1753 688.413 80.1021 688.276 81.8914C688.276 83.543 688.276 85.1946 688.276 86.8461C688.276 90.1493 688.276 93.3149 688.276 96.3428C688.276 121.254 688.138 141.349 688.138 155.25C688.138 158.69 688.138 161.856 688.138 164.471C688.138 165.847 688.138 167.086 688.138 168.187C688.138 168.738 688.138 169.288 688 169.839C687.862 170.389 687.725 170.802 687.449 171.215C686.485 172.867 685.108 173.555 684.282 173.83C683.18 173.968 682.767 173.968 682.767 173.968Z" fill="#263238"/>
<path d="M518.892 92.7645C520.793 92.7645 522.335 91.2239 522.335 89.3236C522.335 87.4233 520.793 85.8828 518.892 85.8828C516.991 85.8828 515.449 87.4233 515.449 89.3236C515.449 91.2239 516.991 92.7645 518.892 92.7645Z" fill="white"/>
<path d="M532.801 89.3236C532.801 91.2505 531.286 92.7645 529.358 92.7645C527.43 92.7645 525.915 91.2505 525.915 89.3236C525.915 87.3968 527.43 85.8828 529.358 85.8828C531.286 85.8828 532.801 87.3968 532.801 89.3236Z" fill="white"/>
<path d="M539.824 92.7645C541.725 92.7645 543.267 91.2239 543.267 89.3236C543.267 87.4233 541.725 85.8828 539.824 85.8828C537.923 85.8828 536.381 87.4233 536.381 89.3236C536.381 91.2239 537.923 92.7645 539.824 92.7645Z" fill="white"/>
<path d="M558.002 127.31H536.795C535.555 127.31 534.454 126.347 534.454 124.971C534.454 123.732 535.418 122.631 536.795 122.631H558.002C559.241 122.631 560.343 123.594 560.343 124.971C560.205 126.347 559.241 127.31 558.002 127.31Z" fill="#263238"/>
<path d="M558.002 139.284H536.795C535.555 139.284 534.454 138.321 534.454 136.944C534.454 135.706 535.418 134.604 536.795 134.604H558.002C559.241 134.604 560.343 135.568 560.343 136.944C560.205 138.321 559.241 139.284 558.002 139.284Z" fill="#E0E0E0"/>
<path d="M669.961 127.31H608.404C607.165 127.31 606.063 126.347 606.063 124.971C606.063 123.732 607.027 122.631 608.404 122.631H669.961C671.2 122.631 672.302 123.594 672.302 124.971C672.302 126.347 671.2 127.31 669.961 127.31Z" fill="#E0E0E0"/>
<path d="M558.002 151.808H536.795C535.555 151.808 534.454 150.845 534.454 149.469C534.454 148.23 535.418 147.129 536.795 147.129H558.002C559.241 147.129 560.343 148.092 560.343 149.469C560.205 150.707 559.241 151.808 558.002 151.808Z" fill="#FFBE5F"/>
<path d="M655.225 139.284H634.018C632.778 139.284 631.677 138.321 631.677 136.944C631.677 135.706 632.641 134.604 634.018 134.604H655.225C656.465 134.604 657.566 135.568 657.566 136.944C657.566 138.321 656.602 139.284 655.225 139.284Z" fill="#FFBE5F"/>
<path d="M591.879 127.31H570.671C569.432 127.31 568.33 126.347 568.33 124.971C568.33 123.732 569.294 122.631 570.671 122.631H591.879C593.118 122.631 594.22 123.594 594.22 124.971C594.22 126.347 593.256 127.31 591.879 127.31Z" fill="#455A64"/>
<path d="M619.283 139.284H570.671C569.432 139.284 568.33 138.321 568.33 136.944C568.33 135.706 569.294 134.604 570.671 134.604H619.283C620.522 134.604 621.624 135.568 621.624 136.944C621.624 138.321 620.522 139.284 619.283 139.284Z" fill="#263238"/>
<path d="M666.931 151.808H570.671C569.432 151.808 568.468 150.845 568.468 149.469C568.468 148.23 569.432 147.129 570.671 147.129H666.931C668.17 147.129 669.134 148.092 669.134 149.469C669.134 150.707 668.17 151.808 666.931 151.808Z" fill="#E0E0E0"/>
<path d="M618.319 160.617H570.809C569.569 160.617 568.468 159.654 568.468 158.277C568.468 157.039 569.432 155.938 570.809 155.938H618.319C619.558 155.938 620.66 156.901 620.66 158.277C620.522 159.516 619.558 160.617 618.319 160.617Z" fill="#E0E0E0"/>
<path d="M526.329 124.971C526.329 126.209 525.227 127.31 523.988 127.31C522.748 127.31 521.646 126.209 521.646 124.971C521.646 123.732 522.748 122.631 523.988 122.631C525.227 122.631 526.329 123.732 526.329 124.971Z" fill="#455A64"/>
<path d="M526.329 113.547C526.329 114.785 525.227 115.887 523.988 115.887C522.748 115.887 521.646 114.785 521.646 113.547C521.646 112.308 522.748 111.207 523.988 111.207C525.227 111.207 526.329 112.17 526.329 113.547Z" fill="#455A64"/>
<path d="M523.988 139.422C525.28 139.422 526.329 138.374 526.329 137.082C526.329 135.79 525.28 134.742 523.988 134.742C522.695 134.742 521.646 135.79 521.646 137.082C521.646 138.374 522.695 139.422 523.988 139.422Z" fill="#455A64"/>
<path d="M523.988 151.808C525.28 151.808 526.329 150.761 526.329 149.469C526.329 148.176 525.28 147.129 523.988 147.129C522.695 147.129 521.646 148.176 521.646 149.469C521.646 150.761 522.695 151.808 523.988 151.808Z" fill="#455A64"/>
<path d="M549.051 115.198H536.106C535.418 115.198 534.729 114.648 534.729 113.822V112.033C534.729 111.344 535.28 110.656 536.106 110.656H549.051C549.739 110.656 550.428 111.207 550.428 112.033V113.822C550.428 114.51 549.877 115.198 549.051 115.198Z" fill="#455A64"/>
<path d="M175.167 72.6704C158.366 69.7801 143.494 76.2488 129.31 85.7455C115.125 95.2422 104.384 109.556 98.1871 125.521C91.7147 142.313 90.0622 161.168 95.1575 178.372C100.115 195.576 111.958 211.129 128.07 219.249C149.966 230.398 177.921 226.544 197.614 211.68C217.169 196.815 228.461 172.454 229.287 147.818C229.976 130.889 225.844 113.685 216.48 99.6464C206.978 85.6079 191.968 75.1478 175.167 72.6704Z" fill="#603C1F"/>
<path d="M204.362 98.5452L137.159 112.721C130.687 113.134 125.591 118.502 125.454 124.971L126.28 270.173C126.28 280.083 129.723 289.717 135.782 297.562L142.117 305.82C156.714 324.676 186.322 322.749 197.476 301.691C198.302 300.177 198.853 298.939 198.991 297.838C199.266 296.599 199.542 295.635 199.679 294.534L200.919 280.358C201.607 267.421 201.607 254.346 201.607 254.346C201.607 254.346 229.149 250.905 236.173 215.533C239.615 197.916 239.891 168.876 239.34 145.065C238.789 123.87 225.707 97.1689 204.362 98.5452Z" fill="#FFBF9D"/>
<path d="M229.15 172.591C229.15 175.068 227.084 176.995 224.605 176.995C222.127 176.995 220.061 175.068 220.061 172.729C220.061 170.251 222.127 168.324 224.605 168.324C227.084 168.187 229.15 170.114 229.15 172.591Z" fill="#263238"/>
<path d="M232.455 160.204C231.904 160.755 228.461 158.14 223.641 157.864C218.684 157.589 214.966 160.067 214.553 159.378C214.277 159.103 214.966 158.002 216.481 156.901C218.133 155.8 220.75 154.836 223.779 154.974C226.809 155.112 229.425 156.35 230.802 157.589C232.317 158.828 232.73 159.929 232.455 160.204Z" fill="#263238"/>
<path d="M185.082 171.49C185.082 173.968 183.016 175.895 180.538 175.895C178.059 175.895 175.993 173.968 175.993 171.628C175.993 169.151 178.059 167.224 180.538 167.224C183.016 167.086 185.082 169.013 185.082 171.49Z" fill="#263238"/>
<path d="M185.771 158.966C185.22 159.516 181.777 156.901 176.957 156.626C172 156.351 168.282 158.828 167.869 158.14C167.593 157.865 168.282 156.764 169.796 155.663C171.449 154.562 174.065 153.598 177.095 153.736C180.125 153.873 182.741 155.112 184.118 156.351C185.633 157.59 186.046 158.691 185.771 158.966Z" fill="#263238"/>
<path d="M200.506 196.264C200.506 195.989 203.536 195.576 208.493 195.163C209.732 195.025 210.972 194.888 211.247 194.062C211.523 193.098 211.11 191.86 210.559 190.346C209.457 187.318 208.355 184.015 207.254 180.711C202.572 166.948 199.266 155.525 199.955 155.387C200.506 155.249 204.775 166.26 209.319 180.023C210.421 183.464 211.523 186.63 212.487 189.795C212.9 191.172 213.726 192.823 212.9 194.75C212.487 195.713 211.523 196.264 210.696 196.539C209.87 196.814 209.182 196.677 208.493 196.814C203.673 196.677 200.506 196.539 200.506 196.264Z" fill="#263238"/>
<path d="M201.745 254.62C201.745 254.62 177.784 255.171 154.511 240.031C154.511 240.031 165.528 265.08 201.332 263.154L201.745 254.62Z" fill="#FF9A6C"/>
<path d="M198.027 208.101C196.375 205.761 193.345 204.247 190.178 204.522C187.974 204.66 185.909 205.624 184.532 207.275C183.154 208.927 182.741 211.404 183.981 213.056C185.22 214.983 187.974 215.533 190.315 214.983C192.656 214.432 194.722 212.918 196.788 211.542C197.339 211.129 197.889 210.716 198.303 210.165C198.716 209.615 198.716 208.789 198.303 208.376" fill="#D34848"/>
<path d="M185.909 199.154C186.735 199.154 186.46 204.522 190.866 208.376C195.273 212.367 200.919 211.954 201.057 212.78C201.057 213.055 199.818 213.743 197.339 213.743C194.998 213.743 191.555 212.78 188.801 210.44C186.047 207.963 185.083 204.935 184.945 202.733C184.945 200.393 185.633 199.154 185.909 199.154Z" fill="#263238"/>
<path d="M185.495 144.377C184.945 145.753 180.125 144.927 174.341 145.34C168.557 145.753 163.875 147.267 163.049 146.028C162.773 145.478 163.6 144.239 165.527 143C167.455 141.762 170.485 140.661 173.928 140.385C177.371 140.11 180.538 140.798 182.604 141.762C184.807 142.588 185.771 143.689 185.495 144.377Z" fill="#263238"/>
<path d="M231.904 138.596C230.94 139.697 227.635 138.321 223.641 138.183C219.648 137.77 216.067 138.596 215.379 137.495C215.103 136.945 215.654 135.844 217.169 134.88C218.684 133.917 221.163 133.091 224.055 133.366C226.809 133.504 229.287 134.605 230.665 135.844C231.904 136.945 232.317 138.046 231.904 138.596Z" fill="#263238"/>
<path d="M114.988 119.465C122.011 99.0954 152.307 71.156 173.79 73.0828L207.805 94.4159C207.667 94.8288 207.529 95.2417 207.529 95.7922C207.529 95.7922 207.254 96.7557 207.116 97.4438C206.565 99.646 208.218 126.76 207.116 126.897C206.565 127.035 205.05 119.465 203.26 119.465C201.332 119.603 200.506 128.686 199.542 128.549C198.578 128.411 199.129 119.603 197.89 119.465C196.237 119.19 193.207 131.99 191.693 131.714C190.316 131.439 191.279 122.493 189.902 122.218C188.25 121.942 185.496 134.054 183.292 133.779C181.502 133.504 181.777 124.97 180.263 124.833C178.472 124.695 176.544 137.633 174.754 137.495C173.102 137.357 173.377 127.173 171.449 126.897C169.521 126.622 169.521 136.944 162.636 144.927C154.649 153.873 145.009 151.121 141.015 160.067C139.363 163.645 140.051 167.912 138.399 171.49C136.195 176.17 123.939 181.95 118.982 180.299C114.024 178.647 114.162 170.114 112.647 165.572C110.03 157.865 111.27 154.011 112.234 149.744C114.299 140.11 111.683 129.237 114.988 119.465Z" fill="#603C1F"/>
<path d="M133.303 185.116C133.441 182.501 130.549 176.032 127.933 175.619C121.047 174.243 108.378 174.381 107.551 192.135C106.45 216.359 131.1 212.505 131.1 211.817C131.238 211.129 132.89 194.2 133.303 185.116Z" fill="#FFBF9D"/>
<path d="M124.077 202.182C123.939 202.045 123.664 202.458 122.975 202.733C122.287 203.008 121.047 203.146 119.808 202.595C117.329 201.494 115.263 197.365 115.401 192.961C115.401 190.759 115.952 188.694 116.916 186.905C117.742 185.116 118.982 184.015 120.221 183.74C121.46 183.464 122.424 184.29 122.7 184.978C122.975 185.667 122.837 186.217 122.975 186.217C122.975 186.217 123.526 185.804 123.388 184.841C123.251 184.29 123.113 183.74 122.562 183.327C122.011 182.776 121.185 182.501 120.221 182.639C118.293 182.639 116.64 184.29 115.676 186.217C114.575 188.144 113.886 190.484 113.886 192.961C113.886 197.916 116.09 202.595 119.532 203.696C121.185 204.247 122.7 203.834 123.388 203.284C124.077 202.733 124.214 202.182 124.077 202.182Z" fill="#FF9A6C"/>
<path d="M201.194 87.1217C192.794 94.9668 210.145 127.311 212.486 126.622C213.726 126.209 211.798 116.438 213.037 116.162C214.277 115.887 217.169 126.072 218.546 125.797C219.785 125.521 218.821 117.676 220.198 117.401C221.162 117.263 222.126 121.255 225.569 125.521C228.461 129.237 231.49 130.889 232.592 131.715C236.448 134.467 240.304 143.138 239.753 169.701C242.783 164.058 245.399 158.416 247.189 152.635C248.153 149.607 249.944 142.588 249.806 134.467C249.668 129.375 248.567 112.446 235.759 99.6463C225.293 89.4615 207.116 81.6164 201.194 87.1217Z" fill="#603C1F"/>
<path d="M139.914 59.4575C134.267 54.5027 126.556 51.7501 118.844 50.649C107.827 49.1351 96.1217 51.1996 86.7574 56.9801C75.8783 63.8618 72.5732 75.01 70.0944 82.7175C65.6877 96.0678 66.514 107.629 67.478 113.822C65.1369 115.887 60.4547 120.291 57.7005 127.586C55.3595 133.642 55.4972 139.147 55.6349 142.037C53.4315 147.955 48.6117 164.058 53.9824 183.189C55.084 187.318 59.3531 200.806 71.4716 213.193C77.6685 219.387 83.8655 223.241 88.2722 225.718C96.1217 238.243 99.9776 239.757 102.043 239.206C107.276 237.692 107.001 221.038 106.037 207.826C87.7214 152.497 96.3971 137.633 100.942 132.953C102.181 131.715 107.138 127.035 111.27 123.319C123.388 112.309 127.106 110.244 131.789 105.152C137.71 98.5452 142.668 91.3883 148.038 82.3046C149.14 75.1477 145.697 64.4123 139.914 59.4575Z" fill="#603C1F"/>
<path d="M106.037 114.373C117.329 93.1775 133.303 80.653 148.451 75.5605L106.037 114.373Z" fill="#4F2D0E"/>
<path d="M148.451 75.5605C148.451 75.5605 147.763 75.9734 146.386 76.524C145.009 77.0745 143.081 77.9003 140.74 79.139C136.057 81.4788 129.86 85.6077 123.939 91.113C118.017 96.756 113.611 102.537 110.719 107.078C109.342 109.281 108.102 111.07 107.414 112.446C106.587 113.685 106.174 114.373 106.174 114.373C106.174 114.373 106.45 113.547 107.138 112.308C107.827 110.932 108.929 109.143 110.306 106.803C113.06 102.261 117.604 96.3431 123.526 90.7002C129.447 85.0572 135.782 81.0659 140.602 78.7261C142.943 77.625 145.009 76.7992 146.386 76.2487C147.625 75.8358 148.451 75.5605 148.451 75.5605Z" fill="#4F2D0E"/>
<path d="M91.8525 132.954C91.8525 132.954 91.9903 132.954 92.128 132.954C92.4034 132.954 92.6788 133.091 93.0919 133.229C93.9182 133.504 95.0199 133.78 96.6724 134.192C99.702 134.881 104.246 135.569 109.893 135.431C115.539 135.293 122.149 134.192 129.31 131.99C136.471 129.788 143.907 126.347 151.481 122.218C159.055 118.089 166.078 113.96 172.413 109.969C178.748 105.978 184.118 101.986 188.25 98.1326C192.519 94.4165 195.548 91.1133 197.614 88.6359C198.578 87.3973 199.404 86.4338 199.817 85.7457C200.093 85.4704 200.23 85.1951 200.368 85.0575C200.506 84.9199 200.644 84.7822 200.644 84.7822C200.644 84.7822 200.644 84.9199 200.506 85.0575C200.368 85.3328 200.23 85.4704 199.955 85.8833C199.542 86.5715 198.853 87.5349 197.752 88.7736C195.824 91.251 192.794 94.6918 188.525 98.5455C184.394 102.399 178.885 106.391 172.688 110.52C166.354 114.511 159.331 118.778 151.756 122.907C144.182 127.036 136.608 130.476 129.447 132.678C122.286 134.881 115.539 135.844 109.893 135.982C104.246 136.119 99.702 135.293 96.5347 134.605C95.0199 134.192 93.7805 133.917 93.0919 133.642C92.6788 133.504 92.4034 133.367 92.2657 133.367C91.8525 133.091 91.8525 132.954 91.8525 132.954Z" fill="#281B11"/>
<path d="M298.142 355.644L338.767 429.828C358.046 424.873 377.326 420.056 396.605 415.101C406.796 412.073 416.986 409.045 427.315 406.017C427.315 406.017 354.328 485.156 342.485 489.147C330.642 493.139 308.195 493.965 295.388 477.862C283.683 463.272 249.668 386.611 249.668 386.611L298.142 355.644Z" fill="#FFBF9D"/>
<path d="M303.788 357.157C303.788 357.157 277.624 313.528 270.325 304.719C263.577 296.461 254.764 291.506 248.842 289.029C245.537 287.653 242.094 286.689 238.652 286.001L201.057 277.605C201.057 277.605 200.781 294.672 173.79 295.635C142.805 296.736 124.49 268.935 124.49 268.935C124.49 268.935 80.9734 275.679 70.6452 281.046C60.1792 286.414 43.9294 293.158 34.8405 338.164L28.5059 382.206L103.42 389.088L110.581 500.433L147.763 526.308C147.763 526.308 250.77 553.146 257.38 554.798C263.99 556.587 266.194 389.088 266.194 389.088C266.194 389.088 292.772 372.159 303.788 357.157Z" fill="#476443"/>
<path d="M103.145 338.853C103.282 338.853 103.696 351.928 104.109 368.168C104.384 384.409 104.522 397.484 104.384 397.484C104.246 397.484 103.833 384.409 103.42 368.168C103.007 351.928 102.869 338.853 103.145 338.853Z" fill="#263238"/>
<path d="M253.662 338.439C253.662 338.439 253.8 338.715 254.075 339.128C254.351 339.678 254.764 340.229 255.177 341.054C255.59 341.88 256.278 342.981 256.829 344.22C257.38 345.459 258.206 346.835 258.757 348.487C260.134 351.652 261.649 355.506 263.026 359.91C264.266 364.314 265.367 369.269 266.194 374.499C267.708 384.959 267.295 394.731 267.02 401.613C266.744 405.054 266.607 407.806 266.331 409.733C266.194 410.697 266.194 411.385 266.056 411.935C266.056 412.486 265.918 412.761 265.918 412.761C265.918 412.761 265.918 412.486 265.918 411.935C265.918 411.385 266.056 410.559 266.056 409.733C266.194 407.806 266.331 405.054 266.469 401.613C266.744 394.731 266.882 385.097 265.505 374.637C264.817 369.407 263.715 364.452 262.475 360.048C261.236 355.644 259.859 351.79 258.482 348.624C257.793 346.973 257.105 345.596 256.554 344.358C256.003 343.119 255.452 342.018 255.039 341.192C254.626 340.366 254.351 339.678 254.075 339.128C253.662 338.577 253.524 338.439 253.662 338.439Z" fill="#263238"/>
<path d="M210.421 279.807C210.421 279.807 210.559 281.459 210.008 284.487C209.319 287.377 207.805 291.781 203.949 295.773C200.23 299.764 194.171 303.067 187.148 304.581C180.125 306.095 171.862 306.233 163.737 304.306C155.475 302.517 148.176 299.351 141.979 295.635C135.782 292.057 130.549 287.928 126.693 284.074C122.7 280.22 119.945 276.779 118.293 274.302C117.467 273.063 116.778 271.962 116.365 271.412C115.952 270.723 115.676 270.311 115.814 270.311C115.814 270.311 116.09 270.586 116.503 271.274C116.916 271.962 117.604 272.926 118.568 274.164C120.359 276.642 123.25 279.945 127.106 283.661C131.1 287.377 136.195 291.368 142.392 294.947C148.589 298.525 155.888 301.691 164.013 303.48C172.138 305.269 180.125 305.269 187.148 303.755C194.171 302.241 200.093 299.076 203.811 295.222C207.667 291.368 209.182 287.102 210.008 284.211C210.283 282.698 210.559 281.596 210.559 280.771C210.421 280.22 210.421 279.67 210.421 279.807Z" fill="#263238"/>
<path d="M251.183 520.803L110.03 490.111L103.558 389.226L40.7622 383.445C40.7622 383.445 43.1033 452.399 45.4444 472.907C48.8871 502.36 66.3763 542.549 76.5668 550.669C86.7574 558.652 257.518 555.073 257.518 555.073L251.183 520.803Z" fill="#FFBF9D"/>
<path d="M331.331 539.108C330.367 541.035 328.301 542.411 326.098 542.136C325.684 542.136 325.134 541.998 324.72 541.86C321.553 540.897 321.829 534.566 321.829 534.566L306.818 532.089C306.818 532.089 287.401 544.613 280.378 552.871C273.492 561.129 255.865 554.385 255.865 554.385L249.806 522.454L277.348 497.543C277.348 497.543 275.696 499.057 277.624 494.377C279.552 489.698 288.227 491.487 288.227 491.487C289.604 489.147 295.251 488.321 295.251 488.321L319.35 491.074C324.307 491.624 328.714 494.377 331.468 498.644L341.659 514.747C341.659 514.747 347.03 526.446 346.203 529.061C344.826 533.19 340.557 532.226 340.557 532.226C340.557 532.226 339.318 539.934 337.39 540.209C335.324 540.759 331.331 539.108 331.331 539.108Z" fill="#FFBF9D"/>
<path d="M279.965 516.124C279.965 516.399 283.27 516.124 288.365 516.261C293.46 516.537 300.621 517.362 308.058 519.977C311.776 521.216 315.219 522.73 318.248 524.382C321.14 526.033 324.17 527.41 325.134 529.474C325.547 530.575 325.409 531.538 324.858 532.364C324.308 533.19 323.619 533.603 323.068 533.878C321.829 534.429 321.002 534.016 321.002 534.154C321.002 534.154 321.691 534.842 323.344 534.429C324.032 534.291 324.996 533.741 325.685 532.777C326.373 531.951 326.786 530.437 326.235 529.061C325.685 527.685 324.445 526.584 323.206 525.62C321.829 524.794 320.452 523.831 318.937 523.005C315.907 521.354 312.464 519.702 308.609 518.463C301.035 515.848 293.598 515.16 288.365 515.16C283.132 515.298 279.965 515.986 279.965 516.124Z" fill="#FF9A6C"/>
<path d="M278.312 531.538C278.312 531.951 288.227 531.538 300.208 532.226C312.326 532.914 321.966 534.428 322.104 534.015C322.104 533.878 319.763 533.19 315.769 532.502C311.776 531.813 306.405 531.125 300.208 530.712C294.149 530.437 288.64 530.437 284.647 530.712C280.653 530.988 278.312 531.4 278.312 531.538Z" fill="#FF9A6C"/>
<path d="M331.193 538.42C331.33 538.42 331.33 537.456 331.468 535.805C331.606 534.153 331.606 531.676 331.468 528.785C331.33 527.271 331.193 525.62 330.78 523.831C330.366 522.041 329.54 520.252 328.438 518.6C326.235 515.297 323.205 511.856 319.35 509.379C315.494 506.902 311.638 504.7 307.782 503.598C303.926 502.497 300.346 502.085 297.316 501.947C294.286 501.809 291.945 501.947 290.293 501.947C288.64 501.947 287.676 502.085 287.676 502.222C287.676 502.497 291.394 502.635 297.178 503.048C300.07 503.323 303.651 503.736 307.231 504.837C310.812 505.938 314.667 508.14 318.386 510.618C322.104 513.095 324.858 516.261 327.199 519.426C329.54 522.454 329.953 525.895 330.366 528.923C331.055 534.703 330.917 538.42 331.193 538.42Z" fill="#FF9A6C"/>
<path d="M296.352 494.653C296.352 494.928 299.932 494.928 305.716 495.616C311.225 496.442 320.176 496.855 325.271 504.562C330.78 511.581 335.462 518.05 337.527 523.556C339.731 528.923 339.455 532.639 339.868 532.639C340.006 532.639 340.144 531.676 340.006 530.024C340.006 528.373 339.593 526.033 338.629 523.143C336.839 517.5 332.157 510.618 326.648 503.599C325.271 501.81 323.756 500.158 321.966 498.919C320.176 497.543 318.11 496.855 316.32 496.304C312.464 495.203 309.021 494.928 306.129 494.653C299.933 494.24 296.352 494.515 296.352 494.653Z" fill="#FF9A6C"/>
<path d="M285.886 547.778C285.886 547.778 286.437 547.503 287.263 546.677C288.365 545.852 289.604 544.75 291.257 543.374C294.837 540.621 300.07 536.63 307.093 532.501H306.818C311.225 533.327 316.32 534.153 321.828 534.979L321.278 534.29C321.278 535.529 321.277 536.768 321.553 538.006C321.828 539.245 322.241 540.484 323.205 541.585C323.756 542.135 324.583 542.411 325.133 542.548C325.822 542.686 326.51 542.824 327.199 542.686C328.576 542.548 329.953 541.723 330.917 540.621C331.193 540.346 331.33 540.071 331.606 539.796L331.743 539.52V539.383C331.881 539.245 330.091 539.933 330.917 539.658L331.33 539.796C332.019 540.071 332.57 540.209 333.258 540.484C333.947 540.622 334.635 540.897 335.324 541.034C335.737 541.034 336.012 541.172 336.426 541.172C336.839 541.172 337.252 541.172 337.803 540.897C338.629 540.346 338.904 539.52 339.318 538.97C339.593 538.282 339.868 537.594 340.006 536.905C340.419 535.529 340.695 534.153 340.97 532.639L340.144 533.189C342.072 533.465 344.413 533.052 345.652 531.262C346.203 530.437 346.754 529.473 346.616 528.235C346.616 527.133 346.341 526.308 346.065 525.344C344.964 521.628 343.587 518.187 341.934 514.609C340.144 511.856 338.354 508.966 336.426 505.938C335.324 504.149 334.085 502.222 332.983 500.433C331.881 498.644 330.78 496.717 329.127 495.203C327.612 493.689 325.684 492.45 323.756 491.624C321.828 490.798 319.487 490.523 317.559 490.386C309.572 489.422 301.86 488.596 294.837 487.771H294.699H294.562C293.185 488.046 291.808 488.321 290.568 488.872C289.329 489.422 287.952 489.973 287.125 491.349L287.952 491.074C285.335 489.973 282.443 489.973 280.24 491.487C278.037 493.001 276.935 495.34 276.384 497.542L276.522 497.267C268.672 504.424 262.2 510.205 257.518 514.334C255.452 516.261 253.662 517.912 252.422 519.013C251.321 520.114 250.632 520.665 250.77 520.802C250.77 520.802 251.458 520.389 252.698 519.288C254.075 518.187 255.865 516.673 258.069 514.747C262.751 510.755 269.361 504.975 277.348 498.093L277.486 497.955V497.818C278.037 495.891 279 493.689 280.928 492.45C282.719 491.211 285.335 491.211 287.401 492.175L287.952 492.45L288.227 491.899C288.778 491.074 289.88 490.523 290.981 490.11C292.083 489.697 293.46 489.422 294.699 489.147H294.562C301.723 489.973 309.297 490.936 317.284 491.899C319.35 492.175 321.278 492.312 323.068 493.138C324.858 493.826 326.511 494.927 328.025 496.441C329.402 497.818 330.366 499.607 331.606 501.534C332.707 503.323 333.947 505.112 335.049 507.039C336.976 509.929 338.767 512.957 340.557 515.71V515.572C342.072 519.013 343.587 522.592 344.551 526.032C344.826 526.858 344.964 527.822 345.101 528.647C345.239 529.336 344.826 530.024 344.413 530.712C343.587 531.951 341.796 532.364 340.282 532.088L339.593 531.951L339.455 532.639C339.18 534.015 338.904 535.391 338.491 536.63C338.078 537.869 337.527 539.383 336.976 539.796C336.976 539.796 336.701 539.933 336.426 539.796C336.15 539.796 335.875 539.796 335.462 539.658C334.773 539.52 334.222 539.383 333.534 539.245C332.845 539.108 332.294 538.832 331.743 538.557L331.33 538.419C332.157 538.144 330.229 538.832 330.504 538.695V538.832L330.366 538.97C330.229 539.245 330.091 539.52 329.816 539.658C329.127 540.484 328.025 541.172 326.924 541.31C326.373 541.447 325.822 541.31 325.271 541.172C324.72 541.034 324.307 540.897 323.894 540.621C322.517 539.108 322.241 536.493 322.241 534.428V533.877L321.691 533.74C316.182 532.914 311.225 532.088 306.68 531.4H306.543L306.405 531.538C299.382 535.942 294.149 539.933 290.706 542.961C288.916 544.475 287.676 545.576 286.85 546.402C286.299 547.228 285.748 547.778 285.886 547.778Z" fill="#FF9A6C"/>
<path d="M535.83 399.273L349.922 400.787C343.862 400.787 338.079 403.678 337.252 409.596L316.871 545.164H221.163C218.133 545.164 215.517 547.642 215.517 550.807C215.517 553.835 217.995 556.45 221.163 556.45H315.219H333.121H527.017L547.949 413.45C549.051 406.017 543.267 399.273 535.83 399.273Z" fill="#E0E0E0"/>
<path d="M535.83 399.273C535.83 399.273 536.794 399.135 538.722 399.548C540.65 399.961 543.542 401.062 545.883 404.228C546.985 405.742 547.949 407.806 548.224 410.146C548.5 412.486 547.811 415.101 547.536 417.853C546.709 423.359 545.883 429.69 544.919 436.709C540.788 465.061 534.866 506.076 527.705 556.312L527.568 556.863H527.017C447.833 556.863 343.862 557 230.251 557C227.635 557 224.881 557 222.264 557C221.025 557 219.372 557 217.995 556.174C216.618 555.486 215.654 554.248 215.103 552.871C214.002 549.981 215.379 546.54 217.995 545.164C219.235 544.338 221.025 544.338 222.127 544.338H226.12C236.586 544.338 246.914 544.338 257.243 544.338C277.761 544.338 297.592 544.338 316.871 544.338L316.183 544.889C323.481 496.442 330.367 451.161 336.426 410.559C336.701 407.944 337.803 405.191 339.869 403.54C341.934 401.75 344.413 400.787 347.03 400.374C349.646 399.961 352.125 400.236 354.466 400.099C356.945 400.099 359.286 400.099 361.765 400.099C371.404 400.099 380.769 399.961 389.72 399.961C407.76 399.824 424.423 399.686 439.433 399.686C469.592 399.548 493.691 399.411 510.216 399.273C518.479 399.273 524.813 399.273 529.22 399.273C531.286 399.273 532.938 399.273 534.178 399.273C535.279 399.273 535.83 399.273 535.83 399.273C535.83 399.273 535.279 399.273 534.178 399.411C533.076 399.411 531.424 399.411 529.22 399.548C524.813 399.548 518.479 399.686 510.216 399.824C493.691 399.961 469.592 400.236 439.433 400.649C424.285 400.787 407.622 400.925 389.72 401.2C380.769 401.337 371.404 401.338 361.765 401.475C359.286 401.475 356.945 401.475 354.466 401.475C351.987 401.613 349.508 401.337 347.167 401.75C344.826 402.163 342.485 402.989 340.695 404.641C338.905 406.292 337.941 408.494 337.665 410.972C331.606 451.573 324.858 496.855 317.56 545.301L317.422 545.852H316.871C297.592 545.852 277.761 545.852 257.243 545.852C247.052 545.852 236.586 545.852 226.12 545.852H222.127C220.749 545.852 219.648 545.852 218.684 546.402C216.618 547.504 215.654 550.119 216.48 552.321C216.894 553.422 217.72 554.385 218.684 554.936C219.785 555.486 220.749 555.624 222.127 555.486C224.743 555.486 227.497 555.486 230.114 555.486C343.725 555.486 447.696 555.624 526.879 555.624L526.328 556.174C533.765 505.938 539.824 465.062 544.093 436.572C545.195 429.552 546.159 423.221 546.985 417.716C547.26 414.963 547.949 412.486 547.811 410.146C547.536 407.806 546.709 405.879 545.608 404.365C543.404 401.337 540.512 400.099 538.722 399.686C536.794 399.273 535.83 399.411 535.83 399.273Z" fill="#263238"/>
<path d="M435.026 487.771C441.491 487.771 446.732 482.533 446.732 476.072C446.732 469.611 441.491 464.373 435.026 464.373C428.561 464.373 423.321 469.611 423.321 476.072C423.321 482.533 428.561 487.771 435.026 487.771Z" fill="white"/>
<path d="M324.445 555.073C324.72 555.073 330.642 520.665 337.665 477.999C344.688 435.471 350.197 400.925 349.921 400.787C349.646 400.787 343.724 435.195 336.701 477.861C329.678 520.39 324.17 555.073 324.445 555.073Z" fill="#263238"/>
<path d="M59.904 548.33C44.0673 555.212 28.7815 555.9 14.3219 548.33L3.71826 459.694H69.5437L59.904 548.33Z" fill="#6F4439"/>
<path d="M65.1368 454.601L63.2089 448.27L13.6332 442.214C12.2561 442.077 11.0167 442.902 10.6036 444.141L7.02314 454.601H0.688477V466.025C25.614 470.429 49.4379 470.704 71.8846 466.025V454.601H65.1368Z" fill="#E0E0E0"/>
<path d="M65.1369 454.602C65.1369 454.602 65.2746 454.602 65.55 454.602C65.9632 454.602 66.3763 454.602 66.7894 454.602C68.0288 454.602 69.6813 454.602 71.747 454.464H71.8847V454.602C71.8847 457.629 71.8847 461.483 72.0224 466.025V466.3H71.747C63.8975 467.952 53.4315 469.604 41.1753 469.741C28.9191 470.016 15.1481 469.053 0.688551 466.438H0.413131H0V466.025C0 462.171 0 458.318 0 454.602V454.051H0.550841C2.7542 454.051 4.81986 454.051 6.88551 454.051L6.47238 454.326C7.71177 450.885 8.81345 447.445 10.0528 444.141C10.3283 443.178 11.0168 442.352 11.9808 441.939C12.3939 441.802 12.9448 441.664 13.4956 441.664C14.0464 441.664 14.3219 441.802 14.8727 441.802C16.5252 442.077 18.1777 442.215 19.8303 442.49C26.4404 443.316 32.4996 444.141 38.008 444.83C49.0248 446.206 57.7006 447.445 63.209 448.133H63.3467V448.27C63.8975 450.197 64.3106 451.849 64.7238 452.95C64.8615 453.501 64.9992 453.913 64.9992 454.189C65.1369 454.326 65.1369 454.464 65.1369 454.602C65.1369 454.602 65.1369 454.464 64.9992 454.189C64.8615 453.913 64.7238 453.501 64.5861 452.95C64.1729 451.849 63.6221 450.197 63.0713 448.27L63.209 448.408C57.5628 447.72 48.8871 446.757 37.8703 445.518C32.3619 444.83 26.1649 444.141 19.6926 443.316C18.04 443.178 16.3875 442.903 14.735 442.765C13.9087 442.628 13.0825 442.49 12.3939 442.765C11.7054 443.04 11.1545 443.591 11.0168 444.417C9.91513 447.72 8.67574 451.161 7.43635 454.739L7.29864 455.014H6.88551C4.81986 455.014 2.7542 455.014 0.550841 455.014L1.10168 454.464C1.10168 458.18 1.10168 462.034 1.10168 465.887L0.688551 465.337H0.963971C15.4235 467.814 29.1946 468.915 41.313 468.64C53.4315 468.502 63.8975 466.989 71.747 465.475L71.4716 465.75C71.4716 461.07 71.6093 457.217 71.6093 454.326L71.747 454.464C69.5436 454.464 67.8911 454.326 66.6517 454.326C66.1009 454.326 65.6878 454.326 65.4123 454.326C65.2746 454.602 65.1369 454.602 65.1369 454.602Z" fill="#263238"/>
<path d="M64.5859 518.876C47.3722 521.629 28.3682 521.216 8.4002 518.876L5.646 492.038C26.8534 494.378 47.6476 494.378 67.891 492.038L64.5859 518.876Z" fill="#AE7461"/>
<path d="M32.9125 500.709C30.296 502.223 29.3321 505.526 30.5715 508.279L32.3617 512.133C33.6011 514.885 36.7684 516.262 39.6603 515.298L32.9125 500.709Z" fill="#6F4439"/>
<path d="M34.1519 500.158L40.8997 514.747C43.5161 513.233 44.4801 509.93 43.2407 507.177L41.4505 503.324C40.0734 500.433 36.9061 499.195 34.1519 500.158Z" fill="#6F4439"/>
<path d="M65.688 454.739C65.688 454.739 64.8617 455.014 63.4846 455.427C61.9698 455.84 59.9041 456.253 57.2876 456.804C52.0547 457.767 44.6183 458.593 36.3557 458.593C28.0931 458.593 20.6567 457.629 15.4238 456.666C12.8073 456.116 10.6039 455.703 9.2268 455.29C7.71199 454.877 7.02344 454.739 7.02344 454.602C7.02344 454.602 7.8497 454.602 9.36451 454.877C10.8793 455.152 12.945 455.565 15.5615 455.84C20.7945 456.666 28.2308 457.354 36.3557 457.354C44.4806 457.354 51.917 456.666 57.1499 455.84C59.7664 455.427 61.9698 455.152 63.3469 454.877C64.8617 454.739 65.688 454.602 65.688 454.739Z" fill="#263238"/>
</svg>
