<?xml version="1.0" encoding="utf-8"?>
<!-- Generator: Adobe Illustrator 23.1.0, SVG Export Plug-In . SVG Version: 6.00 Build 0)  -->
<svg version="1.1" xmlns="http://www.w3.org/2000/svg" xmlns:xlink="http://www.w3.org/1999/xlink" x="0px" y="0px"
	 viewBox="0 0 750 500" style="enable-background:new 0 0 750 500;" xml:space="preserve">
<style type="text/css">
	.st0{display:none;}
	.st1{display:inline;fill:#F5F5F5;}
	.st2{fill:#476443;}
	.st3{opacity:0.2;}
	.st4{fill:#FFFFFF;}
	.st5{fill:#FAFAFA;}
	.st6{fill:#EBEBEB;}
	.st7{fill:#E0E0E0;}
	.st8{fill:#263238;}
	.st9{fill:#FFBE5F;}
	.st10{fill:#455A64;}
	.st11{fill:#603C1F;}
	.st12{fill:#FFBF9D;}
	.st13{fill:#FF9A6C;}
	.st14{fill:#D34848;}
	.st15{fill:#4F2D0E;}
	.st16{fill:#281B11;}
	.st17{fill:#6F4439;}
	.st18{fill:#AE7461;}
</style>
<g id="Background_Complete">
</g>
<g id="Background_Simple" class="st0">
	<path class="st1" d="M118.4,232.7l1.9,0.2c16.1,1.8,31.9-5.2,40.9-18.4c1.2-1.7,2.2-3.5,3.1-5.4c6.4-13.4,5.4-30.2-2.6-42.9
		c-4.7-7.5-11.7-14-13.4-22.6c-2.1-11.3,5.5-21.7,12.8-30.5c7.2-8.8,14.9-19.2,12.7-30.5c-1.4-7-6.5-12.9-12.5-17
		C145.6,54.8,124,54.9,107,63.2s-29.8,23.5-38.1,40.5c-11.7,23.7-15.3,52-6.8,77.3C70.6,206.1,92.2,227.5,118.4,232.7z"/>
	<path class="st1" d="M685.3,400.6l0-1.5c-0.3-12.6-7.4-24.2-18.6-29.7c-1.4-0.7-2.9-1.3-4.5-1.8c-11.1-3.5-23.9-1-33,6.5
		c-5.3,4.4-9.6,10.6-16.1,12.8c-8.5,2.9-17.4-2-25-6.6c-7.6-4.7-16.5-9.5-25-6.6c-5.3,1.8-9.3,6.4-11.8,11.5
		c-6.7,13.3-4.3,30.1,3.9,42.4c8.2,12.3,21.4,20.6,35.4,25.2c19.6,6.5,41.9,6.3,60.6-3C669.8,440.5,684.1,421.5,685.3,400.6z"/>
	<circle class="st1" cx="638.5" cy="101.3" r="32.6"/>
</g>
<g id="Desk">
</g>
<g id="Screen">
</g>
<g id="Device">
</g>
<g id="Focus_Icon">
</g>
<g id="Notifications_Icon">
</g>
<g id="Character">
	<g>
		<g>
			<g>
				<g>
					<g>
						<g>
							<path class="st2" d="M352.4,78.2h-46.3c-3.2,0-5.8-2.6-5.8-5.8V8.3c0-3.2,2.6-5.8,5.8-5.8h29.3L358.2,26v46.4
								C358.2,75.6,355.6,78.2,352.4,78.2z"/>
						</g>
					</g>
					<g class="st3">
						<g>
							<path d="M351.7,78.2h-44.9c-3.6,0-6.5-2.9-6.5-6.5V56.5c0-0.7,0.6-1.2,1.2-1.2H357c0.7,0,1.2,0.6,1.2,1.2v15.2
								C358.2,75.3,355.3,78.2,351.7,78.2z"/>
						</g>
					</g>
					<g class="st3">
						<g>
							<path class="st4" d="M335.5,2.5v18c0,3,2.4,5.4,5.4,5.4l17.3,0L335.5,2.5z"/>
						</g>
					</g>
					<g class="st3">
						<g>
							<path d="M335.7,22.1c0,0-0.2,4.4,4.7,5.8c0.2,0.1,0.4,0.1,0.6,0.1c2.3,0.4,17.2,3.1,17.2,2.7c0-0.4,0-4.8,0-4.8h-17.3
								C340.9,26,336.5,25.8,335.7,22.1z"/>
						</g>
					</g>
				</g>
				<g>
					<g>
						<path class="st5" d="M316.9,65.2c0-2.7,2.1-4.7,4.9-4.7c1.6,0,2.9,0.6,3.7,1.6l-1.3,1.2c-0.6-0.7-1.4-1.1-2.3-1.1
							c-1.7,0-2.9,1.2-2.9,2.9s1.2,2.9,2.9,2.9c0.9,0,1.7-0.4,2.3-1.1l1.3,1.2c-0.8,1-2.1,1.6-3.7,1.6
							C319,69.9,316.9,67.9,316.9,65.2z"/>
					</g>
					<g>
						<path class="st5" d="M326.1,68.8l0.7-1.6c0.8,0.6,1.9,0.9,3,0.9c1.2,0,1.7-0.4,1.7-1c0-1.7-5.2-0.5-5.2-3.9
							c0-1.5,1.2-2.8,3.8-2.8c1.1,0,2.3,0.3,3.1,0.8l-0.6,1.6c-0.8-0.5-1.7-0.7-2.5-0.7c-1.2,0-1.7,0.5-1.7,1c0,1.7,5.2,0.5,5.2,3.8
							c0,1.5-1.2,2.8-3.8,2.8C328.3,69.9,326.9,69.5,326.1,68.8z"/>
					</g>
					<g>
						<path class="st5" d="M334.3,68.8l0.7-1.6c0.8,0.6,1.9,0.9,3,0.9c1.2,0,1.7-0.4,1.7-1c0-1.7-5.2-0.5-5.2-3.9
							c0-1.5,1.2-2.8,3.8-2.8c1.1,0,2.3,0.3,3.1,0.8l-0.6,1.6c-0.8-0.5-1.7-0.7-2.5-0.7c-1.2,0-1.7,0.5-1.7,1c0,1.7,5.2,0.5,5.2,3.8
							c0,1.5-1.2,2.8-3.8,2.8C336.5,69.9,335.1,69.5,334.3,68.8z"/>
					</g>
				</g>
				<g>
					<g>
						<path class="st5" d="M319.8,36.1c1,0.3,1.4,0.9,1.4,2.3v3.3c0,1,0.5,1.5,1.5,1.5h0.4v2.5h-1.2c-2.6,0-3.9-1.3-3.9-3.7v-3.7
							c0-0.7-0.4-1-0.9-1h-0.7v-2.5h0.7c0.6,0,0.9-0.3,0.9-1v-3.7c0-2.4,1.3-3.7,3.9-3.7h1.2V29h-0.4c-1,0-1.5,0.6-1.5,1.5v3.3
							C321.2,35.2,320.8,35.8,319.8,36.1z"/>
					</g>
					<g>
						<path class="st5" d="M342.1,34.8v2.5h-0.7c-0.6,0-0.9,0.3-0.9,1v3.7c0,2.4-1.3,3.7-3.9,3.7h-1.2v-2.5h0.4c1,0,1.5-0.6,1.5-1.5
							v-3.3c0-1.4,0.4-2,1.4-2.3c-1-0.3-1.4-0.9-1.4-2.3v-3.3c0-1-0.5-1.5-1.5-1.5h-0.4v-2.5h1.2c2.6,0,3.9,1.3,3.9,3.7v3.7
							c0,0.7,0.4,1,0.9,1H342.1z"/>
					</g>
				</g>
			</g>
			<g>
				<g>
					<g>
						<g>
							<path class="st2" d="M417.2,124.7h-47c-3.2,0-5.9-2.6-5.9-5.9v-65c0-3.2,2.6-5.9,5.9-5.9H400l23.1,23.8v47.1
								C423.1,122,420.5,124.7,417.2,124.7z"/>
						</g>
					</g>
					<g class="st3">
						<g>
							<path d="M416.2,124.7h-44.9c-3.8,0-6.9-3.1-6.9-6.9v-16.4h58.7v16.4C423.1,121.6,420,124.7,416.2,124.7z"/>
						</g>
					</g>
					<g class="st3">
						<g>
							<path class="st4" d="M400,47.9v18.3c0,3,2.4,5.5,5.5,5.5l17.6,0L400,47.9z"/>
						</g>
					</g>
					<g class="st3">
						<g>
							<path d="M400.3,67.8c0,0-0.2,4.4,4.8,5.9c0.2,0.1,0.4,0.1,0.6,0.1c2.3,0.4,17.4,3.1,17.4,2.8c0-0.4,0-4.9,0-4.9h-17.6
								C405.5,71.7,401.1,71.5,400.3,67.8z"/>
						</g>
					</g>
				</g>
				<g>
					<g>
						<path class="st5" d="M388.5,82.1l-7.1,2.6l7.1,2.6v2.6l-10.1-3.8v-2.8l10.1-3.8V82.1z"/>
					</g>
					<g>
						<path class="st5" d="M396,74.3h2.9l-7,19.9h-2.9L396,74.3z"/>
					</g>
					<g>
						<path class="st5" d="M409.4,83.3v2.8l-10.1,3.8v-2.6l7.1-2.6l-7.1-2.6v-2.6L409.4,83.3z"/>
					</g>
				</g>
				<g>
					<g>
						<path class="st5" d="M386.1,110v7.9h-1.8v-3.2h-3.6v3.2h-1.8V110h1.8v3.1h3.6V110H386.1z"/>
					</g>
					<g>
						<path class="st5" d="M389.6,111.5h-2.5V110h6.9v1.5h-2.5v6.4h-1.8V111.5z"/>
					</g>
					<g>
						<path class="st5" d="M402.1,117.9l0-4.7l-2.3,3.9h-0.8l-2.3-3.8v4.6h-1.7V110h1.5l3,4.9l2.9-4.9h1.5l0,7.9H402.1z"/>
					</g>
					<g>
						<path class="st5" d="M405.7,110h1.8v6.4h4v1.5h-5.8V110z"/>
					</g>
				</g>
			</g>
			<g>
				<g>
					<rect x="331.4" y="187.8" class="st4" width="205.7" height="130.9"/>
					<g>
						<rect x="331.4" y="187.8" class="st6" width="37.1" height="130.9"/>
					</g>
					<g>
						<g>
							<g>
								<g>
									<g>
										<g>
											<g>
												<path class="st7" d="M347.7,201.9c0.2-0.1,0.4-0.2,0.6-0.3l0.1-0.6l1,0l0.1,0.6c0.2,0.1,0.4,0.1,0.6,0.2l0.5-0.3
													l0.7,0.7l-0.3,0.5c0.1,0.2,0.2,0.4,0.3,0.6l0.6,0.1l0,1l-0.6,0.1c-0.1,0.2-0.1,0.4-0.2,0.6l0.3,0.5l-0.7,0.7l-0.5-0.3
													c-0.2,0.1-0.4,0.2-0.6,0.3l-0.1,0.6l-1,0l-0.1-0.6c-0.2-0.1-0.4-0.1-0.6-0.2l-0.5,0.3l-0.7-0.7l0.3-0.5
													c-0.1-0.2-0.2-0.4-0.3-0.6l-0.6-0.1l0-1l0.6-0.1c0.1-0.2,0.1-0.4,0.2-0.6l-0.3-0.5l0.7-0.7L347.7,201.9L347.7,201.9z
													 M348.2,203.3c-0.4,0.4-0.4,1.1,0,1.6c0.4,0.4,1.1,0.4,1.6,0c0.4-0.4,0.4-1.1,0-1.6
													C349.4,202.8,348.7,202.8,348.2,203.3z"/>
											</g>
										</g>
									</g>
								</g>
							</g>
						</g>
					</g>
					<g>
						<path class="st7" d="M356.3,230.8h-16.2c-0.9,0-1.7-0.7-1.7-1.7l0,0c0-0.9,0.7-1.7,1.7-1.7h16.2c0.9,0,1.7,0.7,1.7,1.7l0,0
							C357.9,230.1,357.2,230.8,356.3,230.8z"/>
					</g>
					<g>
						<path class="st7" d="M356.3,222.3h-16.2c-0.9,0-1.7-0.7-1.7-1.7l0,0c0-0.9,0.7-1.7,1.7-1.7h16.2c0.9,0,1.7,0.7,1.7,1.7l0,0
							C357.9,221.6,357.2,222.3,356.3,222.3z"/>
					</g>
					<g>
						<path class="st7" d="M356.3,214.6h-16.2c-0.9,0-1.7-0.7-1.7-1.7l0,0c0-0.9,0.7-1.7,1.7-1.7h16.2c0.9,0,1.7,0.7,1.7,1.7l0,0
							C357.9,213.9,357.2,214.6,356.3,214.6z"/>
					</g>
					<g>
						<path class="st8" d="M399.7,207.1h-15.3c-0.9,0-1.7-0.7-1.7-1.7l0,0c0-0.9,0.7-1.7,1.7-1.7h15.3c0.9,0,1.7,0.7,1.7,1.7l0,0
							C401.3,206.4,400.6,207.1,399.7,207.1z"/>
					</g>
					<g>
						<path class="st7" d="M399.7,215.8h-15.3c-0.9,0-1.7-0.7-1.7-1.7l0,0c0-0.9,0.7-1.7,1.7-1.7h15.3c0.9,0,1.7,0.7,1.7,1.7l0,0
							C401.3,215,400.6,215.8,399.7,215.8z"/>
					</g>
					<g>
						<path class="st9" d="M399.7,224.8h-15.3c-0.9,0-1.7-0.7-1.7-1.7l0,0c0-0.9,0.7-1.7,1.7-1.7h15.3c0.9,0,1.7,0.7,1.7,1.7l0,0
							C401.3,224,400.6,224.8,399.7,224.8z"/>
					</g>
					<g>
						<path class="st8" d="M393.1,242.1h-8.8c-0.9,0-1.7-0.7-1.7-1.7l0,0c0-0.9,0.7-1.7,1.7-1.7h8.8c0.9,0,1.7,0.7,1.7,1.7l0,0
							C394.8,241.4,394,242.1,393.1,242.1z"/>
					</g>
					<g>
						<path class="st8" d="M393.1,251.1h-8.8c-0.9,0-1.7-0.7-1.7-1.7l0,0c0-0.9,0.7-1.7,1.7-1.7h8.8c0.9,0,1.7,0.7,1.7,1.7l0,0
							C394.8,250.4,394,251.1,393.1,251.1z"/>
					</g>
					<g>
						<path class="st7" d="M419.2,251.1h-16.1c-0.9,0-1.7-0.7-1.7-1.7l0,0c0-0.9,0.7-1.7,1.7-1.7h16.1c0.9,0,1.7,0.7,1.7,1.7l0,0
							C420.9,250.4,420.1,251.1,419.2,251.1z"/>
					</g>
					<g>
						<path class="st9" d="M410.1,259.1H394c-0.9,0-1.7-0.7-1.7-1.7l0,0c0-0.9,0.7-1.7,1.7-1.7h16.1c0.9,0,1.7,0.7,1.7,1.7l0,0
							C411.8,258.4,411,259.1,410.1,259.1z"/>
					</g>
					<g>
						<path class="st9" d="M413.8,268.3h-11.3c-0.5,0-1-0.4-1-1v-1.3c0-0.5,0.4-1,1-1h11.3c0.5,0,1,0.4,1,1v1.3
							C414.8,267.8,414.4,268.3,413.8,268.3z"/>
					</g>
					<g>
						<path class="st9" d="M413.1,286.1h-10c-0.9,0-1.7-0.7-1.7-1.7l0,0c0-0.9,0.7-1.7,1.7-1.7h10c0.9,0,1.7,0.7,1.7,1.7l0,0
							C414.8,285.4,414.1,286.1,413.1,286.1z"/>
					</g>
					<g>
						<path class="st9" d="M413.1,305h-10c-0.9,0-1.7-0.7-1.7-1.7l0,0c0-0.9,0.7-1.7,1.7-1.7h10c0.9,0,1.7,0.7,1.7,1.7l0,0
							C414.8,304.3,414.1,305,413.1,305z"/>
					</g>
					<g>
						<path class="st10" d="M437.7,305h-17.5c-0.9,0-1.7-0.7-1.7-1.7l0,0c0-0.9,0.7-1.7,1.7-1.7h17.5c0.9,0,1.7,0.7,1.7,1.7l0,0
							C439.4,304.3,438.6,305,437.7,305z"/>
					</g>
					<g>
						<path class="st7" d="M450,305h-2.5c-0.9,0-1.7-0.7-1.7-1.7l0,0c0-0.9,0.7-1.7,1.7-1.7h2.5c0.9,0,1.7,0.7,1.7,1.7l0,0
							C451.6,304.3,450.9,305,450,305z"/>
					</g>
					<g>
						<path class="st7" d="M436.7,286.1h-14.8c-0.9,0-1.7-0.7-1.7-1.7l0,0c0-0.9,0.7-1.7,1.7-1.7h14.8c0.9,0,1.7,0.7,1.7,1.7l0,0
							C438.3,285.4,437.6,286.1,436.7,286.1z"/>
					</g>
					<g>
						<path class="st7" d="M469.1,294.4h-47.3c-0.9,0-1.7-0.7-1.7-1.7l0,0c0-0.9,0.7-1.7,1.7-1.7h47.3c0.9,0,1.7,0.7,1.7,1.7l0,0
							C470.8,293.7,470.1,294.4,469.1,294.4z"/>
					</g>
					<g>
						<path class="st10" d="M474.6,286.1h-30.2c-0.9,0-1.7-0.7-1.7-1.7l0,0c0-0.9,0.7-1.7,1.7-1.7h30.2c0.9,0,1.7,0.7,1.7,1.7l0,0
							C476.3,285.4,475.5,286.1,474.6,286.1z"/>
					</g>
					<g>
						<path class="st10" d="M434,268.3h-13.8c-0.5,0-1-0.4-1-1v-1.3c0-0.5,0.4-1,1-1H434c0.5,0,1,0.4,1,1v1.3
							C435,267.8,434.5,268.3,434,268.3z"/>
					</g>
					<g>
						<path class="st7" d="M444.8,268.3h-4.4c-0.5,0-1-0.4-1-1v-1.3c0-0.5,0.4-1,1-1h4.4c0.5,0,1,0.4,1,1v1.3
							C445.8,267.8,445.4,268.3,444.8,268.3z"/>
					</g>
					<g>
						<path class="st7" d="M468.7,268.3h-17c-0.5,0-1-0.4-1-1v-1.3c0-0.5,0.4-1,1-1h17c0.5,0,1,0.4,1,1v1.3
							C469.6,267.8,469.2,268.3,468.7,268.3z"/>
					</g>
					<g>
						<path class="st8" d="M421,259.1h-3.6c-0.9,0-1.7-0.7-1.7-1.7l0,0c0-0.9,0.7-1.7,1.7-1.7h3.6c0.9,0,1.7,0.7,1.7,1.7l0,0
							C422.7,258.4,421.9,259.1,421,259.1z"/>
					</g>
					<g>
						<path class="st7" d="M451.4,259.1h-22.8c-0.9,0-1.7-0.7-1.7-1.7l0,0c0-0.9,0.7-1.7,1.7-1.7h22.8c0.9,0,1.7,0.7,1.7,1.7l0,0
							C453,258.4,452.3,259.1,451.4,259.1z"/>
					</g>
					<g>
						<path class="st10" d="M424.2,207.1h-15.3c-0.9,0-1.7-0.7-1.7-1.7l0,0c0-0.9,0.7-1.7,1.7-1.7h15.3c0.9,0,1.7,0.7,1.7,1.7l0,0
							C425.8,206.4,425.1,207.1,424.2,207.1z"/>
					</g>
					<g>
						<path class="st8" d="M443.9,215.8h-35c-0.9,0-1.7-0.7-1.7-1.7l0,0c0-0.9,0.7-1.7,1.7-1.7h35c0.9,0,1.7,0.7,1.7,1.7l0,0
							C445.5,215,444.8,215.8,443.9,215.8z"/>
					</g>
					<g>
						<path class="st7" d="M481.6,224.8h-72.7c-0.9,0-1.7-0.7-1.7-1.7l0,0c0-0.9,0.7-1.7,1.7-1.7h72.7c0.9,0,1.7,0.7,1.7,1.7l0,0
							C483.2,224,482.5,224.8,481.6,224.8z"/>
					</g>
					<g>
						<path class="st7" d="M443.1,231.1h-34.3c-0.9,0-1.7-0.7-1.7-1.7l0,0c0-0.9,0.7-1.7,1.7-1.7h34.3c0.9,0,1.7,0.7,1.7,1.7l0,0
							C444.8,230.3,444.1,231.1,443.1,231.1z"/>
					</g>
					<g>
						<path class="st10" d="M436.1,242.1h-34.3c-0.9,0-1.7-0.7-1.7-1.7l0,0c0-0.9,0.7-1.7,1.7-1.7h34.3c0.9,0,1.7,0.7,1.7,1.7l0,0
							C437.8,241.4,437.1,242.1,436.1,242.1z"/>
					</g>
					<g>
						<path class="st9" d="M455.3,242.1h-11.5c-0.9,0-1.7-0.7-1.7-1.7l0,0c0-0.9,0.7-1.7,1.7-1.7h11.5c0.9,0,1.7,0.7,1.7,1.7l0,0
							C457,241.4,456.2,242.1,455.3,242.1z"/>
					</g>
					<g>
						<path class="st8" d="M484.7,242.1H463c-0.9,0-1.7-0.7-1.7-1.7l0,0c0-0.9,0.7-1.7,1.7-1.7h21.7c0.9,0,1.7,0.7,1.7,1.7l0,0
							C486.4,241.3,485.6,242.1,484.7,242.1z"/>
					</g>
					<g>
						<path class="st7" d="M514.3,242.1h-21.7c-0.9,0-1.7-0.7-1.7-1.7l0,0c0-0.9,0.7-1.7,1.7-1.7h21.7c0.9,0,1.7,0.7,1.7,1.7l0,0
							C515.9,241.3,515.2,242.1,514.3,242.1z"/>
					</g>
					<g>
						<path class="st7" d="M349.3,239.8h-9.2c-0.9,0-1.7-0.7-1.7-1.7l0,0c0-0.9,0.7-1.7,1.7-1.7h9.2c0.9,0,1.7,0.7,1.7,1.7l0,0
							C350.9,239,350.2,239.8,349.3,239.8z"/>
					</g>
					<g>
						<path class="st7" d="M346.5,266.6h-6.4c-0.9,0-1.7-0.7-1.7-1.7l0,0c0-0.9,0.7-1.7,1.7-1.7h6.4c0.9,0,1.7,0.7,1.7,1.7l0,0
							C348.2,265.9,347.4,266.6,346.5,266.6z"/>
					</g>
					<g>
						<path class="st7" d="M357.9,248.7h-17.8c-0.9,0-1.7-0.7-1.7-1.7l0,0c0-0.9,0.7-1.7,1.7-1.7h17.8c0.9,0,1.7,0.7,1.7,1.7l0,0
							C359.6,248,358.8,248.7,357.9,248.7z"/>
					</g>
					<g>
						<path class="st7" d="M354.8,257.7h-14.7c-0.9,0-1.7-0.7-1.7-1.7l0,0c0-0.9,0.7-1.7,1.7-1.7h14.7c0.9,0,1.7,0.7,1.7,1.7l0,0
							C356.4,256.9,355.7,257.7,354.8,257.7z"/>
					</g>
					<g>
						<path class="st10" d="M376.9,205.4c0,0.9-0.8,1.7-1.7,1.7c-0.9,0-1.7-0.8-1.7-1.7s0.8-1.7,1.7-1.7
							C376.1,203.8,376.9,204.5,376.9,205.4z"/>
					</g>
					<g>
						<circle class="st10" cx="375.2" cy="196.6" r="1.7"/>
					</g>
					<g>
						<circle class="st10" cx="375.2" cy="214.1" r="1.7"/>
					</g>
					<g>
						<circle class="st10" cx="375.2" cy="223.1" r="1.7"/>
					</g>
					<g>
						<circle class="st10" cx="375.2" cy="232.1" r="1.7"/>
					</g>
					<g>
						<path class="st10" d="M376.9,241.1c0,0.9-0.8,1.7-1.7,1.7c-0.9,0-1.7-0.8-1.7-1.7c0-0.9,0.8-1.7,1.7-1.7
							C376.1,239.4,376.9,240.2,376.9,241.1z"/>
					</g>
					<g>
						<circle class="st10" cx="375.2" cy="250.1" r="1.7"/>
					</g>
					<g>
						<circle class="st10" cx="375.2" cy="259.1" r="1.7"/>
					</g>
					<g>
						<path class="st10" d="M376.9,268.1c0,0.9-0.8,1.7-1.7,1.7c-0.9,0-1.7-0.8-1.7-1.7c0-0.9,0.8-1.7,1.7-1.7
							C376.1,266.4,376.9,267.2,376.9,268.1z"/>
					</g>
					<g>
						<path class="st10" d="M376.9,277.1c0,0.9-0.8,1.7-1.7,1.7c-0.9,0-1.7-0.8-1.7-1.7s0.8-1.7,1.7-1.7
							C376.1,275.5,376.9,276.2,376.9,277.1z"/>
					</g>
					<g>
						<circle class="st10" cx="375.2" cy="286.1" r="1.7"/>
					</g>
					<g>
						<path class="st10" d="M376.9,295.2c0,0.9-0.8,1.7-1.7,1.7c-0.9,0-1.7-0.8-1.7-1.7c0-0.9,0.8-1.7,1.7-1.7
							C376.1,293.5,376.9,294.2,376.9,295.2z"/>
					</g>
					<g>
						<circle class="st10" cx="375.2" cy="304.2" r="1.7"/>
					</g>
					<path class="st7" d="M533.3,169.9H336.8c-3,0-5.4,2.4-5.4,5.4v12.4h205.7v-14C537.1,171.6,535.4,169.9,533.3,169.9z"/>
					<g>
						<circle class="st4" cx="342" cy="179.4" r="2.5"/>
						<path class="st4" d="M352,179.4c0,1.4-1.1,2.5-2.5,2.5c-1.4,0-2.5-1.1-2.5-2.5s1.1-2.5,2.5-2.5C350.9,176.9,352,178,352,179.4
							z"/>
						<path class="st4" d="M359.6,179.4c0,1.4-1.1,2.5-2.5,2.5c-1.4,0-2.5-1.1-2.5-2.5s1.1-2.5,2.5-2.5
							C358.5,176.9,359.6,178,359.6,179.4z"/>
					</g>
				</g>
				<polygon class="st4" points="375.2,316.6 392.6,335.4 408.3,316.6 				"/>
				<g>
					<path class="st8" d="M531.6,318.6c0,0,0.6,0.1,1.8-0.3c0.6-0.2,1.3-0.5,1.9-1.2c0.7-0.6,1.3-1.5,1.6-2.6
						c0.2-0.6,0.2-1.2,0.2-1.9c0-0.7,0-1.4,0-2.1c0-1.5,0-3.1,0-4.8c0-3.5,0-7.5,0-12c0-18.1-0.1-44.2-0.1-76.5c0-8.1,0-16.5,0-25.4
						c0-4.4,0-8.9,0-13.5c0-1.1,0-2.3,0-3.4c-0.1-1.1-0.6-2.2-1.3-3c-0.7-0.8-1.8-1.4-2.9-1.7c-1.1-0.2-2.3-0.1-3.5-0.1
						c-19,0-39.3,0-60.7,0c-21.4,0-43.8,0-67,0c-11.6,0-23.5,0-35.5,0c-6,0-12,0-18.1,0c-3,0-6.1,0-9.2,0c-0.8,0-1.6,0-2.3,0
						c-0.7,0.1-1.4,0.3-2.1,0.7c-1.3,0.7-2.2,2-2.5,3.4c-0.2,1-0.1,2.1-0.1,3.1v3.2c0,2.1,0,4.3,0,6.4c0,4.3,0,8.5,0,12.7
						c0,8.4,0,16.8,0,25.1c0,16.5,0,32.7,0,48.4c0,7.9,0,15.6,0,23.2c0,3.8,0,7.6,0,11.3c0,1.9,0,3.7,0,5.6c0.1,1.8,1.1,3.4,2.7,4.3
						c0.8,0.4,1.6,0.7,2.5,0.7c0.9,0,1.8,0,2.7,0c1.8,0,3.6,0,5.4,0c3.6,0,7.2,0,10.7,0c7.1,0,14,0,20.7,0l0.1,0l0.1,0.1
						c5.5,5.8,10.8,11.4,15.9,16.8l-0.4,0c4.9-5.8,9.6-11.4,14.1-16.7l0.1-0.1h0.1c38.5,0,69.8,0.1,91.5,0.1c10.8,0,19.2,0,25,0.1
						c2.9,0,5,0,6.5,0C530.8,318.6,531.6,318.6,531.6,318.6s-0.8,0-2.2,0c-1.5,0-3.7,0-6.5,0c-5.7,0-14.1,0-25,0.1
						c-21.7,0-52.9,0.1-91.5,0.1l0.2-0.1c-4.5,5.4-9.2,11-14.1,16.8l-0.2,0.2l-0.2-0.2c-5.2-5.4-10.5-11-15.9-16.7l0.2,0.1
						c-6.7,0-13.7,0-20.7,0c-3.5,0-7.1,0-10.7,0c-1.8,0-3.6,0-5.4,0c-0.9,0-1.8,0-2.7,0c-1,0-1.9-0.3-2.7-0.8
						c-1.7-0.9-2.8-2.8-2.9-4.7c0-1.9,0-3.7,0-5.6c0-3.7,0-7.5,0-11.3c0-7.6,0-15.3,0-23.2c0-15.7,0-31.9,0-48.4
						c0-8.3,0-16.6,0-25.1c0-4.2,0-8.5,0-12.7c0-2.1,0-4.3,0-6.4v-3.2v-1.6c0-0.5,0-1.1,0.2-1.7c0.4-1.6,1.4-3,2.8-3.8
						c0.7-0.4,1.5-0.7,2.3-0.7c0.8-0.1,1.5,0,2.3,0c3.1,0,6.1,0,9.2,0c6.1,0,12.1,0,18.1,0c12,0,23.8,0,35.5,0c23.2,0,45.7,0,67,0
						c21.4,0,41.7,0,60.7,0c1.2,0,2.4-0.1,3.6,0.1c1.2,0.3,2.3,0.9,3.1,1.8c0.8,0.9,1.3,2.1,1.5,3.3c0.1,1.2,0,2.3,0,3.5
						c0,4.6,0,9.1,0,13.5c0,8.8,0,17.3,0,25.4c0,32.3-0.1,58.5-0.1,76.5c0,4.5,0,8.5,0,12c0,1.7,0,3.3,0,4.8c0,0.7,0,1.4,0,2.1
						c0,0.7,0,1.3-0.2,1.9c-0.3,1.2-1,2.1-1.7,2.7c-0.7,0.6-1.4,1-2,1.1c-0.6,0.2-1,0.2-1.4,0.3
						C531.7,318.6,531.6,318.6,531.6,318.6z"/>
				</g>
			</g>
			<g>
				<path class="st4" d="M652.2,157.6H496.6c-1.8,0-3.2-1.4-3.2-3.2V74.7c0-1.8,1.4-3.2,3.2-3.2h156.3c1.8,0,3.2,1.4,3.2,3.2v79.2
					C656,155.9,654.3,157.6,652.2,157.6z"/>
				<path class="st7" d="M656,90H493.4V75c0-1.9,1.6-3.5,3.5-3.5h155.7c1.9,0,3.5,1.6,3.5,3.5V90z"/>
				<g>
					<path class="st8" d="M651.5,157.6c0,0,0.4,0,1.2-0.2c0.8-0.2,2-0.8,2.8-2.3c0.4-0.7,0.6-1.6,0.5-2.6c0-1,0-2.1,0-3.3
						c0-2.4,0-5.1,0-8.2c0-12.4-0.1-30.4-0.1-52.5c0-2.8,0-5.6,0-8.5c0-1.5,0-2.9,0-4.4c0.1-1.4-0.7-2.9-2-3.5
						c-0.7-0.3-1.4-0.3-2.1-0.3c-0.8,0-1.5,0-2.3,0c-1.5,0-3.1,0-4.7,0c-3.1,0-6.4,0-9.6,0c-13,0-27,0-41.6,0c-29.3,0-61.6,0-95.4,0
						c-0.5,0-1,0-1.5,0.1c-0.5,0.1-0.9,0.3-1.3,0.6c-0.8,0.6-1.3,1.5-1.5,2.4c-0.1,0.5,0,1-0.1,1.5V78l0,3.1c0,4.2,0,8.3,0,12.5
						c0,8.2,0,16.4,0,24.3c0,8,0,15.8,0,23.5c0,3.8,0,7.6,0,11.4c-0.1,1.8,1,3.5,2.7,4.2c0.8,0.4,1.7,0.3,2.6,0.3c0.9,0,1.8,0,2.8,0
						c29.3,0,55.7,0,77.9,0.1c22.2,0,40.1,0.1,52.5,0.1c6.2,0,11,0,14.3,0.1c1.6,0,2.9,0,3.7,0C651,157.6,651.5,157.6,651.5,157.6
						s-0.4,0-1.3,0c-0.8,0-2.1,0-3.7,0c-3.3,0-8.1,0-14.3,0.1c-12.4,0-30.4,0.1-52.5,0.1c-22.2,0-48.6,0-77.9,0.1
						c-0.9,0-1.8,0-2.8,0c-0.9,0-1.9,0-2.8-0.4c-1.9-0.7-3.1-2.7-3-4.7c0-3.8,0-7.6,0-11.4c0-7.7,0-15.5,0-23.5c0-8,0-16.1,0-24.3
						c0-4.1,0-8.3,0-12.5l0-3.1l0-1.6c0-0.5,0-1,0.1-1.6c0.2-1.1,0.8-2.2,1.7-2.8c0.5-0.3,1-0.6,1.5-0.7c0.6-0.1,1.1-0.1,1.6-0.1
						c33.8,0,66.1,0,95.4,0c14.7,0,28.6,0,41.6,0c3.3,0,6.5,0,9.6,0c1.6,0,3.1,0,4.7,0c0.8,0,1.5,0,2.3,0c0.7,0,1.6,0,2.3,0.4
						c1.5,0.7,2.4,2.3,2.2,3.9c0,1.5,0,2.9,0,4.4c0,2.9,0,5.7,0,8.5c0,22.2-0.1,40.1-0.1,52.5c0,3.1,0,5.9,0,8.2c0,1.2,0,2.3,0,3.3
						c0,0.5,0,1-0.1,1.4c-0.1,0.5-0.2,0.9-0.4,1.2c-0.8,1.5-2.1,2.1-2.8,2.3C651.9,157.7,651.5,157.6,651.5,157.6z"/>
				</g>
				<g>
					<circle class="st4" cx="505.5" cy="82.2" r="3"/>
					<path class="st4" d="M517.8,82.2c0,1.7-1.4,3-3,3s-3-1.4-3-3s1.4-3,3-3S517.8,80.5,517.8,82.2z"/>
					<circle class="st4" cx="524.1" cy="82.2" r="3"/>
				</g>
				<g>
					<g>
						<path class="st8" d="M540.3,116h-18.9c-1.1,0-2.1-0.9-2.1-2.1l0,0c0-1.1,0.9-2.1,2.1-2.1h18.9c1.1,0,2.1,0.9,2.1,2.1l0,0
							C542.3,115.1,541.4,116,540.3,116z"/>
					</g>
					<g>
						<path class="st7" d="M540.3,126.8h-18.9c-1.1,0-2.1-0.9-2.1-2.1l0,0c0-1.1,0.9-2.1,2.1-2.1h18.9c1.1,0,2.1,0.9,2.1,2.1l0,0
							C542.3,125.9,541.4,126.8,540.3,126.8z"/>
					</g>
					<g>
						<path class="st7" d="M640.1,116h-54.8c-1.1,0-2.1-0.9-2.1-2.1l0,0c0-1.1,0.9-2.1,2.1-2.1h54.8c1.1,0,2.1,0.9,2.1,2.1l0,0
							C642.1,115.1,641.2,116,640.1,116z"/>
					</g>
					<g>
						<path class="st9" d="M540.3,137.9h-18.9c-1.1,0-2.1-0.9-2.1-2.1l0,0c0-1.1,0.9-2.1,2.1-2.1h18.9c1.1,0,2.1,0.9,2.1,2.1l0,0
							C542.3,137,541.4,137.9,540.3,137.9z"/>
					</g>
					<g>
						<path class="st9" d="M627,126.8h-18.9c-1.1,0-2.1-0.9-2.1-2.1l0,0c0-1.1,0.9-2.1,2.1-2.1H627c1.1,0,2.1,0.9,2.1,2.1l0,0
							C629,125.9,628.1,126.8,627,126.8z"/>
					</g>
					<g>
						<path class="st10" d="M570.5,116h-18.9c-1.1,0-2.1-0.9-2.1-2.1l0,0c0-1.1,0.9-2.1,2.1-2.1h18.9c1.1,0,2.1,0.9,2.1,2.1l0,0
							C572.6,115.1,571.7,116,570.5,116z"/>
					</g>
					<g>
						<path class="st8" d="M594.9,126.8h-43.3c-1.1,0-2.1-0.9-2.1-2.1l0,0c0-1.1,0.9-2.1,2.1-2.1h43.3c1.1,0,2.1,0.9,2.1,2.1l0,0
							C597,125.9,596,126.8,594.9,126.8z"/>
					</g>
					<g>
						<path class="st7" d="M637.3,137.9h-85.8c-1.1,0-2-0.9-2-2.1l0,0c0-1.1,0.9-2.1,2-2.1h85.8c1.1,0,2,0.9,2,2.1l0,0
							C639.3,137,638.4,137.9,637.3,137.9z"/>
					</g>
					<g>
						<path class="st7" d="M594,145.7h-42.4c-1.1,0-2.1-0.9-2.1-2.1l0,0c0-1.1,0.9-2.1,2.1-2.1H594c1.1,0,2.1,0.9,2.1,2.1l0,0
							C596.1,144.8,595.1,145.7,594,145.7z"/>
					</g>
					<g>
						<path class="st10" d="M512.1,114c0,1.2-0.9,2.1-2.1,2.1c-1.2,0-2.1-0.9-2.1-2.1c0-1.2,0.9-2.1,2.1-2.1
							C511.1,111.9,512.1,112.8,512.1,114z"/>
					</g>
					<g>
						<path class="st10" d="M512.1,103.7c0,1.2-0.9,2.1-2.1,2.1c-1.2,0-2.1-0.9-2.1-2.1c0-1.2,0.9-2.1,2.1-2.1
							C511.1,101.6,512.1,102.6,512.1,103.7z"/>
					</g>
					<g>
						<circle class="st10" cx="510" cy="124.7" r="2.1"/>
					</g>
					<g>
						<circle class="st10" cx="510" cy="135.8" r="2.1"/>
					</g>
				</g>
				<path class="st10" d="M532.6,105.2h-11.9c-0.5,0-1-0.4-1-1v-2c0-0.5,0.4-1,1-1h11.9c0.5,0,1,0.4,1,1v2
					C533.6,104.8,533.1,105.2,532.6,105.2z"/>
			</g>
		</g>
	</g>
	<g>
		<g>
			<g>
				<g>
					<g>
						<path class="st11" d="M199.2,67.3c-15-2.5-28.2,3.2-40.8,11.7c-12.7,8.5-22.2,21.2-27.7,35.4c-5.8,14.9-7.2,31.8-2.8,47.2
							c4.5,15.4,15,29.2,29.3,36.4c19.5,9.9,44.5,6.5,61.9-6.7c17.5-13.2,27.4-35,28.3-56.9c0.6-15.1-3-30.5-11.4-43
							C227.5,78.9,214.1,69.5,199.2,67.3"/>
					</g>
				</g>
				<g>
					<g>
						<g>
							<g>
								<path class="st12" d="M225.2,90.4l-59.8,12.7c-5.8,0.4-10.3,5.1-10.4,10.9l0.7,129.5c0,8.8,3,17.4,8.4,24.4l5.7,7.4
									c13,16.8,39.4,15.1,49.3-3.7c0.7-1.3,1.2-2.5,1.4-3.4c0.2-1.2,0.5-1.9,0.6-2.9l1.1-12.6c0.6-11.5,0.7-23.2,0.7-23.1
									c0,0,24.5-3.1,30.8-34.6c3.1-15.7,3.3-41.6,2.8-62.8C255.9,113,244.2,89.1,225.2,90.4z"/>
							</g>
						</g>
					</g>
					<g>
						<g>
							<g>
								<g>
									<g>
										<g>
											<g>
												<g>
													<g>
														<g>
															<g>
																<g>
																	<g>
																		<g>
																			<g>
																				<g>
																					<g>
																						<g>
																							<g>
																								<path class="st8" d="M247.3,156.4c0,2.2-1.8,3.9-4.1,4c-2.2,0-4.1-1.7-4.1-3.8c0-2.2,1.8-3.9,4.1-4
																									C245.5,152.5,247.3,154.2,247.3,156.4z"/>
																							</g>
																						</g>
																					</g>
																				</g>
																			</g>
																		</g>
																	</g>
																</g>
															</g>
														</g>
													</g>
												</g>
											</g>
										</g>
									</g>
								</g>
								<g>
									<g>
										<g>
											<g>
												<g>
													<g>
														<g>
															<g>
																<g>
																	<g>
																		<g>
																			<g>
																				<g>
																					<g>
																						<g>
																							<g>
																								<g>
																									<path class="st8" d="M250.2,145.3c-0.5,0.5-3.5-1.9-7.9-2c-4.4-0.2-7.7,1.9-8.1,1.4
																										c-0.2-0.2,0.3-1.2,1.8-2.1c1.4-1,3.8-1.9,6.5-1.7c2.7,0.1,5,1.2,6.3,2.3
																										C250.1,144.1,250.5,145.1,250.2,145.3z"/>
																								</g>
																							</g>
																						</g>
																					</g>
																				</g>
																			</g>
																		</g>
																	</g>
																</g>
															</g>
														</g>
													</g>
												</g>
											</g>
										</g>
									</g>
								</g>
							</g>
							<g>
								<g>
									<g>
										<g>
											<g>
												<g>
													<g>
														<g>
															<g>
																<g>
																	<g>
																		<g>
																			<g>
																				<g>
																					<g>
																						<g>
																							<g>
																								<path class="st8" d="M208,155.4c0,2.2-1.8,3.9-4.1,4c-2.2,0-4.1-1.7-4.1-3.8c0-2.2,1.8-3.9,4.1-4
																									C206.2,151.5,208,153.2,208,155.4z"/>
																							</g>
																						</g>
																					</g>
																				</g>
																			</g>
																		</g>
																	</g>
																</g>
															</g>
														</g>
													</g>
												</g>
											</g>
										</g>
									</g>
								</g>
								<g>
									<g>
										<g>
											<g>
												<g>
													<g>
														<g>
															<g>
																<g>
																	<g>
																		<g>
																			<g>
																				<g>
																					<g>
																						<g>
																							<g>
																								<g>
																									<path class="st8" d="M208.6,144.3c-0.5,0.5-3.5-1.9-7.9-2c-4.4-0.2-7.7,1.9-8.1,1.4
																										c-0.2-0.2,0.3-1.2,1.8-2.1c1.4-1,3.8-1.9,6.5-1.7c2.7,0.1,5,1.2,6.3,2.3C208.5,143,208.9,144,208.6,144.3z
																										"/>
																								</g>
																							</g>
																						</g>
																					</g>
																				</g>
																			</g>
																		</g>
																	</g>
																</g>
															</g>
														</g>
													</g>
												</g>
											</g>
										</g>
									</g>
								</g>
							</g>
							<g>
								<g>
									<g>
										<g>
											<g>
												<g>
													<g>
														<g>
															<g>
																<g>
																	<g>
																		<g>
																			<g>
																				<g>
																					<g>
																						<g>
																							<g>
																								<path class="st8" d="M221.8,177.6c0-0.2,2.7-0.6,7.2-1c1.1-0.1,2.2-0.3,2.4-1c0.3-0.8-0.1-2-0.6-3.3
																									c-0.9-2.7-1.9-5.6-3-8.6c-4.1-12.3-7.1-22.4-6.6-22.6c0.5-0.2,4.2,9.7,8.4,22c1,3,1.9,5.9,2.8,8.7
																									c0.4,1.3,1,2.8,0.4,4.4c-0.3,0.8-1.2,1.4-1.9,1.6c-0.7,0.2-1.4,0.2-1.9,0.2
																									C224.6,177.9,221.8,177.8,221.8,177.6z"/>
																							</g>
																						</g>
																					</g>
																				</g>
																			</g>
																		</g>
																	</g>
																</g>
															</g>
														</g>
													</g>
												</g>
											</g>
										</g>
									</g>
								</g>
							</g>
							<g>
								<g>
									<g>
										<g>
											<g>
												<g>
													<g>
														<g>
															<g>
																<g>
																	<g>
																		<g>
																			<g>
																				<g>
																					<g>
																						<g>
																							<path class="st13" d="M222.8,229.5c0,0-21.4,0.5-42.1-13c0,0,9.8,22.4,41.7,20.6L222.8,229.5z"/>
																						</g>
																					</g>
																				</g>
																			</g>
																		</g>
																	</g>
																</g>
															</g>
														</g>
													</g>
												</g>
											</g>
										</g>
									</g>
								</g>
							</g>
							<g>
								<g>
									<g>
										<g>
											<g>
												<g>
													<g>
														<g>
															<g>
																<g>
																	<g>
																		<g>
																			<g>
																				<g>
																					<g>
																						<g>
																							<path class="st14" d="M219.5,188.1c-1.5-2.1-4.2-3.4-7-3.2c-1.9,0.1-3.9,1-5.1,2.5c-1.2,1.5-1.5,3.7-0.5,5.2
																								c1.1,1.7,3.6,2.2,5.7,1.7c2.1-0.5,4-1.8,5.7-3.1c0.5-0.4,1-0.7,1.3-1.2c0.3-0.5,0.4-1.2,0.1-1.6"/>
																						</g>
																					</g>
																				</g>
																			</g>
																		</g>
																	</g>
																</g>
															</g>
														</g>
													</g>
												</g>
											</g>
										</g>
									</g>
								</g>
							</g>
							<g>
								<g>
									<g>
										<g>
											<g>
												<g>
													<g>
														<g>
															<g>
																<g>
																	<g>
																		<g>
																			<g>
																				<g>
																					<g>
																						<g>
																							<g>
																								<path class="st8" d="M208.8,180.1c0.7,0,0.5,4.7,4.5,8.3c3.9,3.5,9,3.2,9,3.9c0.1,0.3-1.2,0.9-3.3,0.9
																									c-2.1,0-5.1-0.8-7.5-3c-2.4-2.2-3.4-5-3.4-6.9C207.9,181.2,208.5,180.1,208.8,180.1z"/>
																							</g>
																						</g>
																					</g>
																				</g>
																			</g>
																		</g>
																	</g>
																</g>
															</g>
														</g>
													</g>
												</g>
											</g>
										</g>
									</g>
								</g>
							</g>
						</g>
					</g>
					<g>
						<g>
							<g>
								<g>
									<g>
										<g>
											<g>
												<g>
													<g>
														<g>
															<g>
																<g>
																	<g>
																		<g>
																			<g>
																				<path class="st8" d="M208.4,131.3c-0.5,1.2-4.8,0.4-10,0.9c-5.2,0.3-9.4,1.7-10,0.6c-0.3-0.5,0.5-1.6,2.2-2.7
																					c1.7-1.1,4.4-2.1,7.5-2.3c3.1-0.2,5.9,0.4,7.7,1.2C207.7,129.7,208.6,130.7,208.4,131.3z"/>
																			</g>
																		</g>
																	</g>
																</g>
															</g>
														</g>
													</g>
												</g>
											</g>
										</g>
									</g>
								</g>
							</g>
						</g>
					</g>
					<g>
						<g>
							<g>
								<g>
									<g>
										<g>
											<g>
												<g>
													<g>
														<g>
															<g>
																<g>
																	<g>
																		<g>
																			<g>
																				<path class="st8" d="M249.7,126.1c-0.8,1-3.8-0.2-7.4-0.4c-3.6-0.3-6.7,0.4-7.4-0.7c-0.3-0.5,0.2-1.5,1.6-2.4
																					c1.4-0.9,3.6-1.6,6.1-1.4c2.5,0.2,4.6,1.2,5.8,2.2C249.7,124.6,250.1,125.6,249.7,126.1z"/>
																			</g>
																		</g>
																	</g>
																</g>
															</g>
														</g>
													</g>
												</g>
											</g>
										</g>
									</g>
								</g>
							</g>
						</g>
					</g>
					<g>
						<g>
							<g>
								<path class="st11" d="M145.6,109.1c6.2-18.2,33.3-43,52.4-41.3l30.3,19c-0.1,0.3-0.2,0.7-0.3,1.2c0,0-0.2,0.8-0.4,1.5
									c-0.5,1.9,0.9,26.1,0,26.3c-0.5,0.1-1.9-6.7-3.5-6.6c-1.7,0.1-2.5,8.2-3.3,8.1c-0.8-0.1-0.3-7.9-1.5-8.1
									c-1.4-0.2-4.1,11.2-5.6,11c-1.2-0.2-0.4-8.2-1.7-8.4c-1.5-0.3-4,10.6-5.9,10.4c-1.6-0.2-1.4-7.9-2.7-8
									c-1.6-0.1-3.3,11.4-5,11.3c-1.5-0.1-1.2-9.2-3-9.5c-1.8-0.2-1.7,9-7.9,16.1c-7.1,8-15.7,5.6-19.3,13.5
									c-1.5,3.2-0.8,7-2.3,10.2c-2,4.2-12.9,9.4-17.3,7.9c-4.4-1.5-4.3-9.1-5.7-13.1c-2.4-6.8-1.3-10.3-0.4-14.1
									C144.9,127.4,142.6,117.8,145.6,109.1z"/>
							</g>
						</g>
					</g>
					<g>
						<g>
							<g>
								<g>
									<g>
										<g>
											<path class="st12" d="M161.8,167.5c0.1-2.4-2.4-8-4.8-8.5c-6.2-1.2-17.5-1.1-18.2,14.7c-1,21.6,20.9,18.2,21,17.5
												C160,190.8,161.5,175.7,161.8,167.5z"/>
										</g>
									</g>
								</g>
							</g>
						</g>
					</g>
					<g>
						<g>
							<g>
								<g>
									<g>
										<g>
											<g>
												<path class="st13" d="M153.7,182.8c-0.1-0.1-0.4,0.2-1,0.5c-0.6,0.3-1.7,0.4-2.8-0.1c-2.2-0.9-4-4.7-3.9-8.6
													c0-2,0.5-3.8,1.3-5.3c0.7-1.6,1.8-2.6,3-2.8c1.2-0.2,1.9,0.5,2.2,1.1c0.3,0.6,0.1,1,0.2,1.1c0.1,0.1,0.5-0.3,0.3-1.2
													c-0.1-0.4-0.3-1-0.8-1.4c-0.5-0.4-1.3-0.7-2.1-0.6c-1.7,0-3.2,1.5-4.1,3.2c-0.9,1.7-1.5,3.8-1.6,6
													c-0.1,4.4,2,8.5,5.1,9.6c1.5,0.5,2.8,0.1,3.5-0.4C153.6,183.3,153.8,182.8,153.7,182.8z"/>
											</g>
										</g>
									</g>
								</g>
							</g>
						</g>
					</g>
				</g>
				<g>
					<g>
						<path class="st11" d="M222.4,80.2c-7.5,7,8,35.9,10,35.3c1.1-0.3-0.7-9.1,0.5-9.4c1.1-0.2,3.6,8.8,5,8.6
							c1.1-0.2,0.2-7.2,1.5-7.4c0.9-0.2,1.7,3.4,4.7,7.2c2.6,3.3,5.3,4.8,6.2,5.5c3.4,2.5,6.9,10.2,6.4,33.9
							c2.6-5.1,5-10.1,6.6-15.2c0.9-2.7,2.5-8.9,2.3-16.2c-0.1-4.5-1.1-19.6-12.5-31C243.8,82.3,227.7,75.3,222.4,80.2z"/>
					</g>
				</g>
			</g>
			<path class="st11" d="M167.8,55.6c-5.1-4.4-11.9-6.9-18.8-7.8c-9.9-1.3-20.3,0.5-28.5,5.7c-9.7,6.1-12.6,16-14.9,22.9
				c-4,11.8-3.2,22.2-2.4,27.7c-2.1,1.8-6.3,5.8-8.7,12.3c-2.1,5.5-2,10.3-1.8,12.9c-1.9,5.3-6.2,19.6-1.5,36.7
				c1,3.7,4.7,15.8,15.6,26.7c5.5,5.5,11,9,15,11.1c7,11.2,10.5,12.5,12.3,12c4.6-1.3,4.5-16.2,3.6-27.9
				c-16.3-49.4-8.6-62.6-4.5-66.7c1.1-1.1,5.5-5.2,9.2-8.6c10.8-9.8,14.1-11.6,18.3-16.2c5.3-5.9,9.7-12.3,14.5-20.4
				C176,69.5,172.9,60,167.8,55.6z"/>
			<g>
				<path class="st15" d="M137.5,104.5c10-18.9,24.3-30.1,37.8-34.6"/>
				<g>
					<path class="st15" d="M175.4,69.9c0,0-0.7,0.3-1.9,0.8c-1.2,0.5-3,1.3-5.1,2.3c-4.2,2.1-9.7,5.7-15,10.7
						c-5.2,5-9.2,10.2-11.8,14.2c-1.3,2-2.3,3.6-3,4.8c-0.7,1.1-1.1,1.8-1.1,1.7c0,0,0.3-0.7,0.9-1.9c0.6-1.2,1.6-2.9,2.8-4.9
						c2.5-4,6.5-9.4,11.7-14.4c5.3-5,10.9-8.6,15.2-10.7c2.1-1,3.9-1.7,5.2-2.2C174.7,70.1,175.4,69.9,175.4,69.9z"/>
				</g>
			</g>
			<g>
				<path class="st16" d="M124.9,121.1c0,0,0.1,0,0.3,0.1c0.2,0.1,0.5,0.1,0.8,0.2c0.7,0.2,1.8,0.5,3.1,0.8c2.7,0.6,6.8,1.2,11.8,1
					c5-0.1,11-1.1,17.3-3.1c6.3-2,13-5,19.7-8.7c6.7-3.7,13-7.4,18.6-11c5.6-3.6,10.4-7.2,14.2-10.5c3.8-3.3,6.5-6.3,8.3-8.5
					c0.9-1.1,1.6-1.9,2-2.5c0.2-0.3,0.4-0.5,0.5-0.7c0.1-0.1,0.2-0.2,0.2-0.2c0,0,0,0.1-0.1,0.3c-0.1,0.2-0.3,0.4-0.5,0.7
					c-0.4,0.6-1,1.5-1.9,2.6c-1.7,2.2-4.5,5.3-8.2,8.7c-3.7,3.4-8.6,7-14.1,10.7c-5.6,3.6-11.9,7.3-18.7,11
					c-6.8,3.7-13.5,6.7-19.9,8.7c-6.4,2-12.4,2.9-17.5,3c-5.1,0.1-9.1-0.6-11.9-1.3c-1.4-0.4-2.4-0.7-3.1-0.9
					c-0.3-0.1-0.6-0.2-0.8-0.3C125,121.2,124.9,121.1,124.9,121.1z"/>
			</g>
		</g>
		<g>
			<path class="st12" d="M308.8,319.7l36.2,66.1c17.2-4.4,34.3-8.7,51.5-13.1c9.1-2.7,18.2-5.4,27.3-8.1c0,0-65.1,70.5-75.6,74.1
				c-10.6,3.6-30.5,4.2-42-10.1c-10.4-13-40.7-81.4-40.7-81.4L308.8,319.7z"/>
		</g>
		<g>
			<g>
				<g>
					<g>
						<path class="st2" d="M313.8,321c0,0-23.3-38.9-29.8-46.7c-6.1-7.4-13.9-11.7-19.1-14c-2.9-1.3-6-2.1-9.1-2.7l-33.5-7.4
							c0,0-0.3,15.2-24.3,16.1c-27.6,1-43.9-23.8-43.9-23.8s-38.7,6-48,10.8c-9.3,4.8-23.8,10.8-31.9,51l-5.6,39.3l66.8,6.2
							l6.4,99.3l33.1,23.1c0,0,91.9,23.9,97.7,25.5c5.9,1.6,7.8-147.8,7.8-147.8S304,334.3,313.8,321z"/>
					</g>
				</g>
			</g>
		</g>
		<g>
			<path class="st8" d="M134.9,304.6c0.2,0,0.6,11.7,0.8,26.2c0.3,14.5,0.4,26.2,0.2,26.2c-0.2,0-0.6-11.7-0.8-26.2
				C134.8,316.4,134.8,304.6,134.9,304.6z"/>
		</g>
		<g>
			<path class="st8" d="M269.1,304.2c0,0,0.1,0.2,0.4,0.6c0.3,0.5,0.6,1,1,1.7c0.4,0.8,0.9,1.7,1.5,2.8c0.5,1.1,1.2,2.3,1.8,3.8
				c1.3,2.8,2.6,6.3,3.8,10.2c1.1,3.9,2.1,8.3,2.8,13c1.3,9.4,1,18,0.7,24.1c-0.2,3.1-0.4,5.6-0.6,7.3c-0.1,0.8-0.2,1.5-0.2,2
				c-0.1,0.5-0.1,0.7-0.1,0.7c0,0,0-0.2,0-0.7c0-0.5,0.1-1.2,0.1-2c0.1-1.7,0.3-4.2,0.4-7.3c0.2-6.2,0.4-14.7-0.9-24
				c-0.6-4.7-1.6-9-2.7-12.9c-1.2-3.9-2.4-7.4-3.6-10.2c-0.6-1.4-1.2-2.7-1.7-3.8c-0.5-1.1-1-2.1-1.4-2.8c-0.4-0.7-0.6-1.3-0.9-1.8
				C269.1,304.5,269,304.2,269.1,304.2z"/>
		</g>
		<g>
			<path class="st8" d="M230.6,252c0,0,0.1,1.5-0.4,4.2c-0.6,2.6-2,6.5-5.4,10.1c-3.4,3.6-8.7,6.5-15,7.9
				c-6.3,1.4-13.6,1.5-20.9-0.2c-7.3-1.5-13.9-4.5-19.4-7.7c-5.6-3.2-10.2-6.9-13.7-10.2c-3.5-3.4-6-6.5-7.5-8.7
				c-0.8-1.1-1.3-2-1.7-2.6c-0.4-0.6-0.6-0.9-0.5-0.9c0,0,0.2,0.3,0.7,0.9c0.4,0.6,1,1.5,1.8,2.6c1.6,2.2,4.1,5.2,7.7,8.5
				c3.5,3.3,8.1,6.9,13.7,10.1c5.5,3.2,12.1,6,19.3,7.6c7.2,1.6,14.4,1.5,20.6,0.2c6.2-1.3,11.5-4.2,14.8-7.6
				c3.4-3.4,4.8-7.2,5.5-9.8c0.3-1.3,0.5-2.4,0.5-3.1C230.5,252.3,230.6,252,230.6,252z"/>
		</g>
		<g>
			<g>
				<path class="st12" d="M266.9,466.9l-125.8-27.4l-5.8-89.9l-55.9-5.2c0,0,2.1,61.5,4.2,79.7c3.1,26.3,18.6,62.1,27.7,69.3
					c9.1,7.2,161.2,3.9,161.2,3.9L266.9,466.9z"/>
			</g>
		</g>
		<g>
			<g>
				<path class="st12" d="M338.3,483.2c-0.9,1.8-2.7,2.9-4.7,2.7c-0.4,0-0.8-0.1-1.2-0.2c-2.8-0.9-2.5-6.6-2.5-6.6l-13.3-2.2
					c0,0-17.3,11.2-23.5,18.6c-6.2,7.4-21.9,1.4-21.9,1.4l-5.5-28.4l24.5-22.2c0,0-1.5,1.3,0.2-2.8c1.7-4.2,9.4-2.6,9.4-2.6
					c1.2-2.1,6.2-2.8,6.2-2.8l21.5,2.5c4.4,0.5,8.4,3,10.8,6.8l9.1,14.4c0,0,4.8,10.4,4,12.8c-1.2,3.6-5,2.8-5,2.8s-1.1,6.8-2.8,7.1
					C341.9,484.7,338.3,483.2,338.3,483.2L338.3,483.2z"/>
			</g>
		</g>
		<g>
			<g>
				<g>
					<path class="st13" d="M292.5,462.8c0,0.2,2.9,0,7.5,0.2c4.6,0.2,10.9,1,17.6,3.3c3.3,1.1,6.4,2.5,9.1,3.9
						c2.6,1.5,5.3,2.7,6.1,4.6c0.4,0.9,0.2,1.9-0.2,2.6c-0.5,0.7-1.1,1.1-1.6,1.4c-1.1,0.5-1.9,0.1-1.9,0.3c-0.1,0,0.7,0.6,2.1,0.2
						c0.7-0.2,1.5-0.6,2.1-1.4c0.6-0.8,1-2.1,0.5-3.4c-0.5-1.3-1.5-2.2-2.7-3c-1.2-0.8-2.4-1.6-3.8-2.3c-2.7-1.5-5.8-2.9-9.2-4.1
						c-6.8-2.3-13.3-3-18-3C295.4,462,292.5,462.6,292.5,462.8z"/>
				</g>
			</g>
		</g>
		<g>
			<g>
				<g>
					<path class="st13" d="M291,476.5c0,0.4,8.8,0,19.5,0.7c10.8,0.6,19.4,1.9,19.5,1.5c0-0.2-2.1-0.7-5.6-1.4
						c-3.5-0.6-8.4-1.2-13.8-1.6c-5.4-0.3-10.3-0.2-13.9,0C293.2,476,291,476.3,291,476.5z"/>
				</g>
			</g>
		</g>
		<g>
			<g>
				<g>
					<path class="st13" d="M338.2,482.6c0.1,0,0.2-0.8,0.3-2.3c0.1-1.5,0.2-3.6,0-6.3c-0.1-1.3-0.2-2.8-0.6-4.4
						c-0.3-1.6-1.1-3.2-2.1-4.7c-1.9-2.9-4.6-6-8.1-8.3c-3.4-2.3-6.8-4.2-10.3-5.2c-3.4-1-6.6-1.3-9.3-1.4c-2.7-0.1-4.8,0-6.3,0
						c-1.5,0.1-2.3,0.1-2.3,0.2c0,0.2,3.3,0.3,8.5,0.7c2.6,0.2,5.7,0.6,9,1.7c3.2,1,6.6,2.9,9.9,5.1c3.3,2.2,5.8,5,7.8,7.8
						c2.1,2.7,2.5,5.8,2.8,8.4C338.1,479.3,337.9,482.6,338.2,482.6z"/>
				</g>
			</g>
		</g>
		<g>
			<g>
				<g>
					<path class="st13" d="M307.1,443.6c0,0.2,3.2,0.3,8.4,0.9c5,0.8,12.9,1.1,17.4,7.9c4.9,6.2,9,12.1,10.9,16.9
						c1.9,4.8,1.8,8.1,2,8.1c0.1,0,0.2-0.8,0.1-2.3c-0.1-1.5-0.4-3.6-1.3-6.1c-1.7-5.1-5.8-11.2-10.7-17.4c-1.3-1.6-2.6-3.1-4.2-4.2
						c-1.6-1.2-3.4-1.9-5.1-2.4c-3.4-1-6.5-1.2-9.1-1.4C310.4,443.2,307.1,443.4,307.1,443.6z"/>
				</g>
			</g>
		</g>
		<g>
			<g>
				<g>
					<path class="st13" d="M297.8,490.9c0,0,0.5-0.3,1.3-1c0.9-0.7,2.1-1.7,3.6-2.9c3.2-2.5,7.9-6,14.1-9.7l-0.3,0.1
						c4,0.7,8.5,1.4,13.3,2.3l-0.5-0.6c0,1.1,0,2.2,0.2,3.3c0.2,1.1,0.6,2.3,1.5,3.2c0.5,0.5,1.2,0.7,1.8,0.8
						c0.6,0.2,1.2,0.2,1.9,0.1c1.3-0.2,2.5-0.9,3.3-1.8c0.2-0.2,0.4-0.5,0.6-0.8l0.1-0.2l0.1-0.1l0-0.1l0,0c0.2-0.1-1.5,0.5-0.8,0.3
						l0,0l0,0l0.4,0.2c0.6,0.2,1.1,0.4,1.7,0.6c0.6,0.2,1.2,0.3,1.8,0.5c0.3,0.1,0.6,0.1,1,0.1c0.3,0,0.7,0,1.2-0.2
						c0.8-0.5,1-1.2,1.3-1.8c0.3-0.6,0.5-1.2,0.7-1.8c0.4-1.2,0.6-2.5,0.9-3.8l-0.8,0.5c1.7,0.3,3.8-0.1,5-1.7
						c0.5-0.7,1-1.6,0.9-2.7c0-0.9-0.3-1.8-0.5-2.6c-0.9-3.3-2.2-6.4-3.7-9.6l0,0l0,0c-1.5-2.5-3.2-5.1-4.9-7.7
						c-1-1.6-2.1-3.3-3.1-4.9c-1-1.6-1.9-3.3-3.4-4.7c-1.4-1.4-3-2.5-4.8-3.2c-1.8-0.8-3.7-1-5.5-1.1c-7.1-0.8-13.9-1.6-20.3-2.3
						l-0.1,0l-0.1,0c-1.2,0.2-2.4,0.5-3.6,0.9c-1.1,0.5-2.3,1-3.1,2.2l0.7-0.2c-2.3-0.9-4.9-0.9-6.9,0.4c-2,1.3-2.9,3.4-3.4,5.4
						l0.2-0.3c-7,6.3-12.8,11.5-16.9,15.2c-1.9,1.7-3.4,3.1-4.6,4.2c-1,1-1.6,1.5-1.5,1.5c0,0,0.6-0.4,1.7-1.3c1.2-1,2.8-2.3,4.7-4
						c4.2-3.6,10-8.7,17.2-14.9l0.1-0.1l0-0.2c0.5-1.8,1.4-3.7,3-4.7c1.6-1.1,3.9-1.1,5.8-0.3l0.5,0.2l0.3-0.4
						c0.5-0.7,1.5-1.3,2.5-1.6c1-0.4,2.2-0.7,3.3-0.8l-0.2,0c6.4,0.7,13.1,1.6,20.3,2.4c1.8,0.2,3.5,0.4,5.1,1.1
						c1.6,0.7,3.1,1.6,4.4,2.9c1.3,1.2,2.1,2.9,3.2,4.5c1,1.6,2,3.2,3.1,4.9c1.7,2.6,3.3,5.2,4.9,7.7l0-0.1c1.4,3.1,2.7,6.3,3.6,9.4
						c0.2,0.8,0.4,1.6,0.4,2.3c0.1,0.6-0.2,1.3-0.6,1.8c-0.8,1.1-2.3,1.4-3.6,1.2l-0.7-0.1l-0.1,0.6c-0.2,1.2-0.5,2.4-0.8,3.6
						c-0.3,1.1-0.8,2.4-1.4,2.9c0,0-0.3,0.1-0.5,0.1c-0.3,0-0.5,0-0.8-0.1c-0.6-0.1-1.1-0.2-1.7-0.4c-0.6-0.2-1.1-0.4-1.6-0.6
						l-0.4-0.2l0,0l0,0c0.7-0.3-1,0.3-0.8,0.3l0,0l0,0l0,0.1l-0.1,0.2c-0.1,0.2-0.3,0.4-0.5,0.6c-0.7,0.8-1.6,1.3-2.6,1.5
						c-0.5,0.1-1,0-1.5-0.1c-0.5-0.1-0.9-0.2-1.2-0.5c-1.3-1.3-1.5-3.7-1.5-5.6l0-0.5l-0.5-0.1c-4.9-0.8-9.4-1.5-13.3-2.1l-0.2,0
						l-0.1,0.1c-6.2,3.9-10.9,7.5-14,10.1c-1.5,1.3-2.7,2.4-3.5,3.1C298.1,490.5,297.8,490.9,297.8,490.9z"/>
				</g>
			</g>
		</g>
	</g>
	<g>
		<g>
			<g>
				<g>
					<path class="st7" d="M520.6,358.6l-165.7,1.3c-5.4,0-10.5,2.6-11.3,7.9l-18.1,120.8h-85.3c-2.7,0-5,2.2-5,5c0,2.7,2.2,5,5,5
						H324h15.9h172.8l18.6-127.4C532.3,364.5,527.2,358.6,520.6,358.6z"/>
				</g>
			</g>
			<g>
				<g>
					<g>
						<path class="st8" d="M520.6,358.6c0,0,0.9-0.1,2.6,0.2c1.7,0.4,4.3,1.4,6.3,4.2c1,1.4,1.8,3.2,2,5.3c0.3,2.1-0.3,4.4-0.6,6.8
							c-0.7,4.9-1.5,10.5-2.4,16.8c-3.6,25.3-8.9,61.8-15.4,106.7l-0.1,0.4l-0.4,0c-70.5,0-163.2,0.1-264.4,0.2c-2.4,0-4.7,0-7.1,0
							c-1.1,0-2.6,0-3.8-0.7c-1.2-0.6-2.1-1.7-2.5-3c-1-2.5,0.2-5.6,2.6-6.9c1.1-0.7,2.6-0.7,3.7-0.7l3.5,0c9.3,0,18.6,0,27.7,0
							c18.2,0,36,0,53.1,0l-0.6,0.5c6.5-43.2,12.6-83.6,18.1-119.8c0.2-2.3,1.2-4.8,3.1-6.3c1.8-1.6,4.1-2.4,6.3-2.8
							c2.3-0.3,4.5-0.2,6.7-0.2c2.2,0,4.4,0,6.5,0c8.6-0.1,16.9-0.1,24.9-0.2c16-0.1,30.9-0.2,44.3-0.3c26.9-0.1,48.3-0.2,63.1-0.3
							c7.3,0,13,0,16.9,0c1.9,0,3.3,0,4.4,0C520.1,358.6,520.6,358.6,520.6,358.6s-0.5,0-1.5,0.1c-1,0-2.5,0.1-4.4,0.1
							c-3.9,0.1-9.5,0.1-16.9,0.2c-14.8,0.2-36.2,0.4-63.1,0.7c-13.5,0.1-28.3,0.3-44.3,0.4c-8,0.1-16.3,0.2-24.9,0.2
							c-2.2,0-4.3,0-6.5,0.1c-2.2,0.1-4.4-0.1-6.5,0.2c-2.1,0.3-4.2,1.1-5.8,2.5c-1.6,1.4-2.5,3.4-2.7,5.7
							c-5.4,36.2-11.4,76.5-17.9,119.8l-0.1,0.5h-0.6c-17.1,0-34.9,0-53.1,0c-9.1,0-18.4,0-27.7,0l-3.5,0c-1.2,0-2.2,0-3.1,0.5
							c-1.8,1-2.7,3.3-2,5.3c0.3,1,1,1.8,1.9,2.3c0.9,0.5,1.9,0.6,3.1,0.5c2.4,0,4.7,0,7.1,0c101.2,0.1,193.9,0.1,264.4,0.2
							l-0.5,0.4c6.6-44.8,12.1-81.3,15.8-106.6c0.9-6.3,1.8-11.9,2.5-16.8c0.3-2.4,0.9-4.7,0.7-6.7c-0.2-2-0.9-3.8-1.9-5.2
							c-2-2.7-4.5-3.8-6.1-4.2C521.5,358.6,520.5,358.7,520.6,358.6z"/>
					</g>
				</g>
			</g>
		</g>
		<g>
			<g>
				<circle class="st4" cx="430.7" cy="427" r="10.4"/>
			</g>
		</g>
		<g>
			<g>
				<g>
					<path class="st8" d="M332.2,497.4c0.2,0,5.5-30.7,11.8-68.7c6.3-38,11.2-68.8,10.9-68.8c-0.2,0-5.5,30.7-11.8,68.7
						C336.8,466.6,331.9,497.4,332.2,497.4z"/>
				</g>
			</g>
		</g>
	</g>
	<g id="Plant">
		<g>
			<g>
				<g>
					<g>
						<path class="st17" d="M96.5,491.4c-14.1,6.1-27.7,6.7-40.6,0l-9.4-79H105L96.5,491.4z"/>
					</g>
					<g>
						<g>
							<g>
								<g>
									<path class="st7" d="M101.1,407.8l-1.8-5.6l-44.2-5.4c-1.2-0.1-2.3,0.6-2.7,1.7l-3.2,9.3h-5.6V418
										c22.2,3.9,43.4,4.1,63.5,0l0-10.2H101.1z"/>
									<g>
										<path class="st8" d="M101.1,407.8c0,0,0.1,0,0.4,0c0.3,0,0.7,0,1.2,0c1.1,0,2.5-0.1,4.4-0.1l0.2,0l0,0.2
											c0,2.6,0.1,6.1,0.1,10.2l0,0.2l-0.2,0c-7,1.5-16.4,2.9-27.3,3.1c-10.9,0.3-23.2-0.6-36.1-2.9l-0.2,0l-0.4-0.1l0-0.4
											c0-3.5,0-6.9,0-10.2l0-0.4l0.4,0c1.9,0,3.8,0,5.6,0l-0.4,0.3c1.1-3.1,2.1-6.2,3.2-9.1c0.2-0.8,0.9-1.6,1.7-1.9
											c0.4-0.2,0.9-0.3,1.3-0.2c0.4,0,0.8,0.1,1.2,0.1c1.5,0.2,3,0.4,4.5,0.6c5.8,0.7,11.3,1.4,16.2,2
											c9.8,1.3,17.5,2.3,22.5,2.9l0.1,0l0,0.1c0.5,1.8,0.9,3.2,1.2,4.2c0.1,0.4,0.2,0.8,0.3,1.1
											C101.1,407.7,101.1,407.8,101.1,407.8c0,0-0.1-0.1-0.1-0.3c-0.1-0.3-0.2-0.6-0.4-1.1c-0.3-1-0.8-2.4-1.4-4.2l0.1,0.1
											c-5-0.6-12.8-1.5-22.5-2.6c-4.9-0.6-10.4-1.2-16.2-1.9c-1.5-0.2-3-0.4-4.5-0.5c-0.8-0.1-1.5-0.2-2.1,0
											c-0.6,0.3-1.1,0.8-1.3,1.5c-1,3-2.1,6-3.1,9.1l-0.1,0.3l-0.3,0c-1.8,0-3.7,0-5.6,0l0.4-0.4c0,3.3,0,6.8,0,10.2l-0.4-0.4
											l0.2,0c12.8,2.2,25.1,3.2,36,3c10.8-0.2,20.1-1.5,27.2-2.8l-0.2,0.3c0-4.1,0.1-7.6,0.1-10.2l0.2,0.2
											c-1.9,0-3.4-0.1-4.5-0.1c-0.5,0-0.8,0-1.1,0C101.3,407.8,101.1,407.8,101.1,407.8z"/>
									</g>
								</g>
							</g>
						</g>
					</g>
					<g>
						<path class="st18" d="M100.6,465.2c-15.3,2.5-32.2,2.1-50.1,0l-2.4-24c18.9,2,37.4,2.1,55.5,0L100.6,465.2z"/>
					</g>
					<g>
						<g>
							<path class="st17" d="M72.4,449c-2.3,1.4-3.2,4.3-2.1,6.8l1.6,3.4c1.2,2.5,4,3.7,6.5,2.8L72.4,449z"/>
						</g>
						<g>
							<path class="st17" d="M73.5,448.5l6,13c2.3-1.4,3.2-4.3,2.1-6.8l-1.6-3.4C78.8,448.8,76,447.6,73.5,448.5z"/>
						</g>
					</g>
				</g>
			</g>
			<g>
				<path class="st8" d="M101.6,408c0,0.1-0.7,0.3-2,0.6c-1.3,0.3-3.2,0.7-5.6,1.2c-4.7,0.8-11.3,1.6-18.7,1.6
					c-7.3,0-13.9-0.8-18.7-1.7c-2.4-0.4-4.3-0.8-5.6-1.2c-1.3-0.3-2-0.6-2-0.6c0-0.1,0.7,0,2.1,0.3c1.3,0.2,3.2,0.6,5.6,0.9
					c4.7,0.7,11.3,1.4,18.6,1.4c7.3,0,13.8-0.6,18.6-1.3c2.4-0.3,4.3-0.7,5.6-0.9C100.9,408,101.6,407.9,101.6,408z"/>
			</g>
		</g>
	</g>
</g>
</svg>
