<svg width="52" height="38" viewBox="0 0 52 38" fill="none" xmlns="http://www.w3.org/2000/svg">
<path d="M5.18824 5.875C5.18824 2.9793 7.51483 0.625 10.3765 0.625H41.5059C44.3675 0.625 46.6941 2.9793 46.6941 5.875V26.875H41.5059V5.875H10.3765V26.875H5.18824V5.875ZM0 31.075C0 30.2055 0.697169 29.5 1.55647 29.5H50.3259C51.1852 29.5 51.8824 30.2055 51.8824 31.075C51.8824 34.5531 49.0937 37.375 45.6565 37.375H6.22588C2.78868 37.375 0 34.5531 0 31.075ZM22.7796 15.1445L20.2665 17.6875L22.7796 20.2305C23.5416 21.0016 23.5416 22.2484 22.7796 23.0113C22.0176 23.7742 20.7854 23.7824 20.0315 23.0113L16.1403 19.0738C15.3783 18.3027 15.3783 17.0559 16.1403 16.293L20.0315 12.3555C20.7935 11.5844 22.0257 11.5844 22.7796 12.3555C23.5335 13.1266 23.5416 14.3734 22.7796 15.1363V15.1445ZM31.859 12.3555L35.7502 16.293C36.5122 17.0641 36.5122 18.3109 35.7502 19.0738L31.859 23.0113C31.097 23.7824 29.8648 23.7824 29.1109 23.0113C28.3569 22.2402 28.3488 20.9934 29.1109 20.2305L31.6239 17.6875L29.1109 15.1445C28.3488 14.3734 28.3488 13.1266 29.1109 12.3637C29.8729 11.6008 31.1051 11.5926 31.859 12.3637V12.3555Z" fill="#2B2B2B"/>
</svg>
